<?xml version="1.0" encoding="UTF-8" standalone="no"?>
<svg
   viewBox="0 0 30 30.000027"
   version="1.1"
   id="svg6"
   sodipodi:docname="restart_primary.svg"
   inkscape:version="1.4 (unknown)"
   width="30"
   height="30.000027"
   xmlns:inkscape="http://www.inkscape.org/namespaces/inkscape"
   xmlns:sodipodi="http://sodipodi.sourceforge.net/DTD/sodipodi-0.dtd"
   xmlns:xlink="http://www.w3.org/1999/xlink"
   xmlns="http://www.w3.org/2000/svg"
   xmlns:svg="http://www.w3.org/2000/svg"
   xmlns:rdf="http://www.w3.org/1999/02/22-rdf-syntax-ns#"
   xmlns:cc="http://creativecommons.org/ns#"
   xmlns:dc="http://purl.org/dc/elements/1.1/">
  <metadata
     id="metadata10">
    <rdf:RDF>
      <cc:Work
         rdf:about="">
        <dc:format>image/svg+xml</dc:format>
        <dc:type
           rdf:resource="http://purl.org/dc/dcmitype/StillImage" />
      </cc:Work>
    </rdf:RDF>
  </metadata>
  <sodipodi:namedview
     pagecolor="#ffffff"
     bordercolor="#666666"
     borderopacity="1"
     objecttolerance="10"
     gridtolerance="10"
     guidetolerance="10"
     inkscape:pageopacity="0"
     inkscape:pageshadow="2"
     inkscape:window-width="1920"
     inkscape:window-height="998"
     id="namedview8"
     showgrid="false"
     inkscape:zoom="5.3734324"
     inkscape:cx="6.7926787"
     inkscape:cy="-5.8621748"
     inkscape:window-x="0"
     inkscape:window-y="0"
     inkscape:window-maximized="1"
     inkscape:current-layer="svg6"
     inkscape:lockguides="true"
     inkscape:showpageshadow="2"
     inkscape:pagecheckerboard="0"
     inkscape:deskcolor="#d1d1d1" />
  <defs
     id="defs3051">
    <linearGradient
       inkscape:collect="always"
       id="linearGradient826">
      <stop
         style="stop-color:#034061;stop-opacity:1"
         offset="0"
         id="stop822" />
      <stop
         style="stop-color:#5599ff;stop-opacity:1"
         offset="1"
         id="stop824" />
    </linearGradient>
    <style
       type="text/css"
       id="current-color-scheme">
      .ColorScheme-Text {
        color:#eff0f1;
      }
      </style>
    <linearGradient
       inkscape:collect="always"
       xlink:href="#linearGradient826"
       id="linearGradient828"
       x1="3.1792085"
       y1="15.045453"
       x2="27.154184"
       y2="15.004681"
       gradientUnits="userSpaceOnUse"
       gradientTransform="translate(-0.088387,-0.0046815)" />
  </defs>
  <path
     style="color:#eff0f1;fill:url(#linearGradient828);fill-opacity:1;stroke:none"
     d="M 15,3 C 12.859179,3.00462 10.57247,3.7214382 8.7299152,4.8114506 L 14.292969,10.050781 15.418727,8.9211172 11.228626,5.0755756 C 12.616515,4.4633843 13.715725,4.3117847 15.09305,4.3534748 21.400808,4.5395756 25.6,8.9248678 25.6,15 c -0.0045,1.874363 -0.441076,3.39081 -1.357475,5.025885 l 1.0856,1.054192 C 26.417466,19.238664 26.994687,17.139495 27,15 27,8.372583 21.627417,3 15,3 Z M 4.5788246,9.381268 C 3.4888122,11.223822 3.0046166,12.859179 3,15 c 0,6.627416 5.372583,11.999999 12,11.999999 2.140821,-0.0046 4.241429,-0.581863 6.083984,-1.671875 l -5.376953,-5.378906 -1.079233,1.160256 3.952525,3.904547 C 17.192119,25.627819 16.517835,25.694202 15,25.699999 8.9248678,25.699999 4.5,21.075131 4.5,15 4.50451,13.125636 4.748025,12.167492 5.6644244,10.532417 Z"
     class="ColorScheme-Text"
     id="path4"
     inkscape:connector-curvature="0"
     sodipodi:nodetypes="cccccccccccccccccccccc" />
  <rect
     ry="15.000005"
     y="0"
     x="0"
     height="30.000027"
     width="30"
     id="rect4130"
     style="opacity:0.15;fill:#b3b3b3;fill-opacity:1;stroke:none;stroke-width:1" />
</svg>
