<?xml version="1.0" encoding="UTF-8" standalone="no"?>
<svg
   id="svg4306"
   width="22"
   height="22"
   version="1.1"
   style="enable-background:new"
   sodipodi:docname="shade.svg"
   inkscape:version="1.3.2 (091e20ef0f, 2023-11-25)"
   xmlns:inkscape="http://www.inkscape.org/namespaces/inkscape"
   xmlns:sodipodi="http://sodipodi.sourceforge.net/DTD/sodipodi-0.dtd"
   xmlns="http://www.w3.org/2000/svg"
   xmlns:svg="http://www.w3.org/2000/svg"
   xmlns:rdf="http://www.w3.org/1999/02/22-rdf-syntax-ns#"
   xmlns:cc="http://creativecommons.org/ns#"
   xmlns:dc="http://purl.org/dc/elements/1.1/">
  <g
     id="pressed-inactive-center">
    <rect
       style="opacity:0.00100002;fill:#000000;fill-opacity:1;fill-rule:nonzero;stroke:none;stroke-width:2;stroke-linecap:round;stroke-linejoin:round;stroke-miterlimit:4;stroke-dasharray:none;stroke-opacity:1"
       y="22"
       x="0"
       height="22"
       width="22"
       id="rect4266-3-6-5" />
    <path
       id="path839-3-3"
       style="fill:#2b4254;fill-opacity:1;stroke-width:1.125;enable-background:new"
       d="M 11,24 C 6.02953,24 2,28.029441 2,32.999998 2,37.970557 6.02953,42 11,42 15.97048,42 20,37.970557 20,32.999998 20,28.029441 15.97048,24 11,24 Z m 0,1.125 c 4.34919,0 7.875,3.525746 7.875,7.874998 C 18.875,37.349232 15.34919,40.875 11,40.875 6.6508,40.875 3.125,37.349232 3.125,32.999998 3.125,28.650746 6.6508,25.125 11,25.125 Z m 0,0 z"
       sodipodi:nodetypes="ssssssssssccccc" />
    <rect
       style="fill:#aa87de;fill-opacity:1;stroke:none;stroke-width:0.39374;enable-background:new"
       id="center-3-35-5-6"
       width="15.749992"
       height="15.749992"
       x="3.125"
       y="25.125"
       ry="7.8749838"
       rx="7.8749962" />
    <path
       d="M 12.500001,30.5 C 12.500001,31.328364 11.828365,32 11,32 10.171635,32 9.5000003,31.328364 9.5000003,30.5 9.5000003,29.671635 10.171635,29 11,29 c 0.828365,0 1.500001,0.671635 1.500001,1.5 z"
       id="path4-3-7-3-3-6-1-3-5-3"
       style="fill:#ffffff;fill-opacity:1;stroke-width:0.00306125;enable-background:new" />
    <rect
       transform="matrix(0.7642353,0.64493752,0.62875286,-0.7776052,0,0)"
       ry="1.147066"
       rx="1.1424459"
       y="-22.214024"
       x="24.869694"
       height="2.294132"
       width="7.9971209"
       id="rect963-3-6"
       style="fill:#ffffff;fill-opacity:1;stroke:none;stroke-width:2.28952;stroke-linecap:round;stroke-linejoin:miter;stroke-miterlimit:4;stroke-dasharray:none;stroke-opacity:1;enable-background:new" />
    <rect
       style="fill:#ffffff;fill-opacity:1;stroke:none;stroke-width:2.28952;stroke-linecap:round;stroke-linejoin:miter;stroke-miterlimit:4;stroke-dasharray:none;stroke-opacity:1;enable-background:new"
       id="rect965-6-7"
       width="7.9971218"
       height="2.294132"
       x="7.7586164"
       y="-36.405769"
       rx="1.1424458"
       ry="1.147066"
       transform="matrix(-0.76423527,0.64493756,-0.62875291,-0.77760516,0,0)" />
  </g>
  <g
     id="inactive-center"
     transform="translate(-44,22)">
    <rect
       style="opacity:0.00100002;fill:#000000;fill-opacity:1;fill-rule:nonzero;stroke:none;stroke-width:2;stroke-linecap:round;stroke-linejoin:round;stroke-miterlimit:4;stroke-dasharray:none;stroke-opacity:1"
       y="0"
       x="0"
       height="22"
       width="22"
       id="rect4266-9" />
    <path
       id="path839-3-70"
       style="fill:#2b4254;fill-opacity:1;stroke-width:1.125;enable-background:new"
       d="M 11,2 C 6.02953,2 2,6.029441 2,10.999998 2,15.970557 6.02953,20 11,20 15.97048,20 20,15.970557 20,10.999998 20,6.029441 15.97048,2 11,2 Z m 0,1.125 c 4.34919,0 7.875,3.525746 7.875,7.874998 C 18.875,15.349232 15.34919,18.875 11,18.875 6.6508,18.875 3.125,15.349232 3.125,10.999998 3.125,6.650746 6.6508,3.125 11,3.125 Z m 0,0 z"
       sodipodi:nodetypes="ssssssssssccccc" />
    <rect
       style="fill:#c6afe9;fill-opacity:0.6;stroke:none;stroke-width:0.39374;enable-background:new"
       id="center-3-35-5-9"
       width="15.749992"
       height="15.749992"
       x="3.125"
       y="3.125"
       ry="7.8749838"
       rx="7.8749962" />
  </g>
  <g
     id="active-center"
     transform="translate(-44)">
    <rect
       id="rect4266"
       width="22"
       height="22"
       x="0"
       y="0"
       style="opacity:0.00100002;fill:#000000;fill-opacity:1;fill-rule:nonzero;stroke:none;stroke-width:2;stroke-linecap:round;stroke-linejoin:round;stroke-miterlimit:4;stroke-dasharray:none;stroke-opacity:1" />
    <path
       id="path839-3"
       style="fill:#2b4254;fill-opacity:1;stroke-width:1.125;enable-background:new"
       d="M 11,2 C 6.02953,2 2,6.0294414 2,10.999998 2,15.970557 6.02953,20 11,20 15.97048,20 20,15.970557 20,10.999998 20,6.0294414 15.97048,2 11,2 Z m 0,1.1249999 c 4.34919,0 7.875,3.5257465 7.875,7.8749981 0,4.349234 -3.52581,7.875002 -7.875,7.875002 -4.3492,0 -7.875,-3.525768 -7.875,-7.875002 0,-4.3492516 3.5258,-7.8749981 7.875,-7.8749981 z m 0,0 z"
       sodipodi:nodetypes="ssssssssssccccc" />
    <rect
       style="fill:#aa87de;fill-opacity:1;stroke:none;stroke-width:0.39374;enable-background:new"
       id="center-3-35-5"
       width="15.749992"
       height="15.749992"
       x="3.125"
       y="3.1250005"
       ry="7.8749838"
       rx="7.8749962" />
  </g>
  <metadata
     id="metadata28">
    <rdf:RDF>
      <cc:Work
         rdf:about="">
        <dc:format>image/svg+xml</dc:format>
        <dc:type
           rdf:resource="http://purl.org/dc/dcmitype/StillImage" />
      </cc:Work>
    </rdf:RDF>
  </metadata>
  <defs
     id="defs26" />
  <sodipodi:namedview
     inkscape:document-rotation="0"
     pagecolor="#ffffff"
     bordercolor="#030303"
     borderopacity="1"
     objecttolerance="10"
     gridtolerance="10"
     guidetolerance="10"
     inkscape:pageopacity="0"
     inkscape:pageshadow="2"
     inkscape:window-width="1920"
     inkscape:window-height="994"
     id="namedview24"
     showgrid="false"
     inkscape:zoom="8.0000005"
     inkscape:cx="-6.4999996"
     inkscape:cy="33.437498"
     inkscape:window-x="0"
     inkscape:window-y="0"
     inkscape:window-maximized="1"
     inkscape:current-layer="svg4306"
     inkscape:snap-bbox="true"
     inkscape:bbox-nodes="true"
     inkscape:lockguides="false"
     inkscape:pagecheckerboard="0"
     showguides="false"
     inkscape:showpageshadow="2"
     inkscape:deskcolor="#d1d1d1">
    <inkscape:grid
       type="xygrid"
       id="grid853"
       originx="-44"
       originy="0"
       spacingy="1"
       spacingx="1"
       units="px"
       visible="false" />
  </sodipodi:namedview>
  <style
     type="text/css"
     id="current-color-scheme" />
  <g
     id="hover-center"
     transform="translate(-22)">
    <rect
       style="opacity:0.00100002;fill:#000000;fill-opacity:1;fill-rule:nonzero;stroke:none;stroke-width:2;stroke-linecap:round;stroke-linejoin:round;stroke-miterlimit:4;stroke-dasharray:none;stroke-opacity:1"
       y="0"
       x="0"
       height="22"
       width="22"
       id="rect4266-3" />
    <path
       id="path839-3-7"
       style="fill:#2b4254;fill-opacity:1;stroke-width:1.125;enable-background:new"
       d="M 11,2 C 6.02953,2 2,6.029441 2,10.999998 2,15.970557 6.02953,20 11,20 15.97048,20 20,15.970557 20,10.999998 20,6.029441 15.97048,2 11,2 Z m 0,1.125 c 4.34919,0 7.875,3.525746 7.875,7.874998 C 18.875,15.349232 15.34919,18.875 11,18.875 6.6508,18.875 3.125,15.349232 3.125,10.999998 3.125,6.650746 6.6508,3.125 11,3.125 Z m 0,0 z"
       sodipodi:nodetypes="ssssssssssccccc" />
    <rect
       style="fill:#c6afe9;fill-opacity:0.69999999;stroke:none;stroke-width:0.39374;enable-background:new"
       id="center-3-35-5-5"
       width="15.749992"
       height="15.749992"
       x="3.125"
       y="3.125"
       ry="7.8749838"
       rx="7.8749962" />
    <rect
       style="fill:#ffffff;fill-opacity:0.80000001;stroke:none;stroke-width:2.28947;stroke-linecap:round;stroke-linejoin:miter;stroke-miterlimit:4;stroke-dasharray:none;stroke-opacity:1;enable-background:new"
       id="rect1029"
       width="7.9971204"
       height="2.2941327"
       x="-2.8015213"
       y="11.419734"
       rx="1.1424462"
       ry="1.1470664"
       transform="matrix(0.76423503,-0.64493784,0.62875254,0.77760545,0,0)" />
    <rect
       transform="matrix(-0.76423503,-0.64493784,-0.62875254,0.77760545,0,0)"
       ry="1.1470661"
       rx="1.1424459"
       y="-2.772017"
       x="-19.912617"
       height="2.2941322"
       width="7.9971194"
       id="rect1031"
       style="fill:#ffffff;fill-opacity:0.80000001;stroke:none;stroke-width:2.28947;stroke-linecap:round;stroke-linejoin:miter;stroke-miterlimit:4;stroke-dasharray:none;stroke-opacity:1;enable-background:new" />
    <path
       d="M 12.500001,13.5 C 12.500001,14.328365 11.828365,15 11,15 10.171635,15 9.5,14.328365 9.5,13.5 9.5,12.671635 10.171635,12 11,12 c 0.828365,0 1.500001,0.671635 1.500001,1.5 z"
       id="path4-3-7-3-3-6-1-3"
       style="fill:#ffffff;fill-opacity:0.80000001;stroke-width:0.00306125;enable-background:new" />
  </g>
  <g
     id="hover-inactive-centar">
    <rect
       id="rect4266-3-67"
       width="22"
       height="22"
       x="-22"
       y="22"
       style="opacity:0.00100002;fill:#000000;fill-opacity:1;fill-rule:nonzero;stroke:none;stroke-width:2;stroke-linecap:round;stroke-linejoin:round;stroke-miterlimit:4;stroke-dasharray:none;stroke-opacity:1" />
    <path
       id="path839-3-5"
       style="fill:#2b4254;fill-opacity:1;stroke-width:1.125;enable-background:new"
       d="m -11,24 c -4.97047,0 -9,4.029441 -9,8.999998 C -20,37.970557 -15.97047,42 -11,42 -6.02952,42 -2.000002,37.970557 -2.000002,32.999998 -2.000002,28.029441 -6.02952,24 -11,24 Z m 0,1.125 c 4.34919,0 7.874998,3.525746 7.874998,7.874998 0,4.349234 -3.525808,7.875002 -7.874998,7.875002 -4.3492,0 -7.875,-3.525768 -7.875,-7.875002 0,-4.349252 3.5258,-7.874998 7.875,-7.874998 z m 0,0 z"
       sodipodi:nodetypes="ssssssssssccccc" />
    <rect
       style="fill:#c6afe9;fill-opacity:0.69999999;stroke:none;stroke-width:0.39374;enable-background:new"
       id="center-3-35-5-62"
       width="15.749992"
       height="15.749992"
       x="-18.875004"
       y="25.125"
       ry="7.8749838"
       rx="7.8749962" />
    <rect
       style="fill:#ffffff;fill-opacity:0.80000001;stroke:none;stroke-width:2.28947;stroke-linecap:round;stroke-linejoin:miter;stroke-miterlimit:4;stroke-dasharray:none;stroke-opacity:1;enable-background:new"
       id="rect1029-2"
       width="7.9971204"
       height="2.2941327"
       x="-33.748215"
       y="14.044852"
       rx="1.1424462"
       ry="1.1470664"
       transform="matrix(0.76423503,-0.64493784,0.62875254,0.77760545,0,0)" />
    <rect
       transform="matrix(-0.76423503,-0.64493784,-0.62875254,0.77760545,0,0)"
       ry="1.1470661"
       rx="1.1424459"
       y="28.23661"
       x="-16.637131"
       height="2.2941322"
       width="7.9971194"
       id="rect1031-70"
       style="fill:#ffffff;fill-opacity:0.80000001;stroke:none;stroke-width:2.28947;stroke-linecap:round;stroke-linejoin:miter;stroke-miterlimit:4;stroke-dasharray:none;stroke-opacity:1;enable-background:new" />
    <path
       d="m -9.4999986,35.499998 c 0,0.828365 -0.6716354,1.5 -1.5000004,1.5 -0.828365,0 -1.5,-0.671635 -1.5,-1.5 0,-0.828365 0.671635,-1.5 1.5,-1.5 0.828365,0 1.5000004,0.671635 1.5000004,1.5 z"
       id="path4-3-7-3-3-6-1-3-9"
       style="fill:#ffffff;fill-opacity:0.80000001;stroke-width:0.00306125;enable-background:new" />
  </g>
  <g
     id="pressed-center">
    <rect
       id="rect4266-3-6"
       width="22"
       height="22"
       x="0"
       y="0"
       style="opacity:0.00100002;fill:#000000;fill-opacity:1;fill-rule:nonzero;stroke:none;stroke-width:2;stroke-linecap:round;stroke-linejoin:round;stroke-miterlimit:4;stroke-dasharray:none;stroke-opacity:1" />
    <path
       id="path839-3-6"
       style="fill:#2b4254;fill-opacity:1;stroke-width:1.125;enable-background:new"
       d="M 11,2 C 6.02953,2 2,6.029441 2,10.999998 2,15.970557 6.02953,20 11,20 15.97048,20 20,15.970557 20,10.999998 20,6.029441 15.97048,2 11,2 Z m 0,1.125 c 4.34919,0 7.875,3.525746 7.875,7.874998 C 18.875,15.349232 15.34919,18.875 11,18.875 6.6508,18.875 3.125,15.349232 3.125,10.999998 3.125,6.650746 6.6508,3.125 11,3.125 Z m 0,0 z"
       sodipodi:nodetypes="ssssssssssccccc" />
    <rect
       style="fill:#aa87de;fill-opacity:1;stroke:none;stroke-width:0.39374;enable-background:new"
       id="center-3-35-5-2"
       width="15.749992"
       height="15.749992"
       x="3.125"
       y="3.1250002"
       ry="7.8749838"
       rx="7.8749962" />
    <path
       d="m 12.500002,8.5 c 0,0.828365 -0.671636,1.5 -1.500001,1.5 -0.828365,0 -1.4999997,-0.671635 -1.4999997,-1.5 0,-0.828365 0.6716347,-1.5 1.4999997,-1.5 0.828365,0 1.500001,0.671635 1.500001,1.5 z"
       id="path4-3-7-3-3-6-1-3-5"
       style="fill:#ffffff;fill-opacity:1;stroke-width:0.00306125;enable-background:new" />
    <rect
       transform="matrix(0.76423531,0.64493751,0.62875287,-0.77760519,0,0)"
       ry="1.147066"
       rx="1.1424459"
       y="-5.3971405"
       x="11.034082"
       height="2.294132"
       width="7.9971209"
       id="rect963-3"
       style="fill:#ffffff;fill-opacity:1;stroke:none;stroke-width:2.28952;stroke-linecap:round;stroke-linejoin:miter;stroke-miterlimit:4;stroke-dasharray:none;stroke-opacity:1;enable-background:new" />
    <rect
       style="fill:#ffffff;fill-opacity:1;stroke:none;stroke-width:2.28952;stroke-linecap:round;stroke-linejoin:miter;stroke-miterlimit:4;stroke-dasharray:none;stroke-opacity:1;enable-background:new"
       id="rect965-6"
       width="7.9971218"
       height="2.294132"
       x="-6.0769954"
       y="-19.588898"
       rx="1.1424458"
       ry="1.147066"
       transform="matrix(-0.76423527,0.64493755,-0.62875292,-0.77760515,0,0)" />
  </g>
</svg>
