<?xml version="1.0" encoding="UTF-8" standalone="no"?>
<svg
   xmlns:dc="http://purl.org/dc/elements/1.1/"
   xmlns:cc="http://creativecommons.org/ns#"
   xmlns:rdf="http://www.w3.org/1999/02/22-rdf-syntax-ns#"
   xmlns:svg="http://www.w3.org/2000/svg"
   xmlns="http://www.w3.org/2000/svg"
   xmlns:sodipodi="http://sodipodi.sourceforge.net/DTD/sodipodi-0.dtd"
   xmlns:inkscape="http://www.inkscape.org/namespaces/inkscape"
   viewBox="0 0 22 22"
   id="svg"
   version="1.1"
   width="100%"
   height="100%"
   sodipodi:docname="akregator.svg"
   inkscape:version="1.0 (4035a4fb49, 2020-05-01)">
  <sodipodi:namedview
     pagecolor="#ffffff"
     bordercolor="#666666"
     borderopacity="1"
     objecttolerance="10"
     gridtolerance="10"
     guidetolerance="10"
     inkscape:pageopacity="0"
     inkscape:pageshadow="2"
     inkscape:window-width="1920"
     inkscape:window-height="1024"
     id="namedview9"
     showgrid="false"
     inkscape:zoom="10.727273"
     inkscape:cx="-5.7330506"
     inkscape:cy="11"
     inkscape:window-x="0"
     inkscape:window-y="0"
     inkscape:window-maximized="1"
     inkscape:current-layer="svg"
     inkscape:document-rotation="0" />
  <defs
     id="defs81">
    <style
       id="current-color-scheme"
       type="text/css" />
  </defs>
  <metadata
     id="metadata34">
    <rdf:RDF>
      <cc:Work
         rdf:about="">
        <dc:format>image/svg+xml</dc:format>
        <dc:type
           rdf:resource="http://purl.org/dc/dcmitype/StillImage" />
        <dc:title />
      </cc:Work>
    </rdf:RDF>
  </metadata>
  <g
     id="akregator"
     transform="translate(0,-2)">
    <rect
       style="fill:#ffffff;fill-opacity:0.01000001;stroke:none"
       id="rect3009"
       width="22"
       height="22"
       x="0"
       y="2" />
    <path
       id="path120"
       style="color:#7b7c7e;fill:#d7f1f8;fill-opacity:1;fill-rule:nonzero;stroke:none"
       d="M 16.610382,9.7814 C 17.929987,9.7814 19,8.71 19,7.389699 19,6.0721 17.929987,5 16.610382,5 15.290797,5 14.220785,6.0721 14.220785,7.389699 14.220785,8.71 15.290797,9.7814 16.610382,9.7814 Z M 19,16.0152 V 13.52 C 14.294425,13.52 10.4803,9.7059 10.4803,5 H 7.987738 c 0,6.082099 4.930388,11.0152 11.012262,11.0152 z M 19,21 V 18.508 C 11.541196,18.508 5.492563,12.4611 5.492563,5 H 3 c 0,8.8381 7.164245,16 16,16"
       class="ColorScheme-Text"
       inkscape:connector-curvature="0" />
  </g>
</svg>
