<?xml version="1.0" encoding="UTF-8" standalone="no"?>
<svg
   xmlns:dc="http://purl.org/dc/elements/1.1/"
   xmlns:cc="http://creativecommons.org/ns#"
   xmlns:rdf="http://www.w3.org/1999/02/22-rdf-syntax-ns#"
   xmlns:svg="http://www.w3.org/2000/svg"
   xmlns="http://www.w3.org/2000/svg"
   xmlns:sodipodi="http://sodipodi.sourceforge.net/DTD/sodipodi-0.dtd"
   xmlns:inkscape="http://www.inkscape.org/namespaces/inkscape"
   version="1.1"
   sodipodi:docname="disk.svg"
   inkscape:version="1.0 (4035a4fb49, 2020-05-01)"
   enable-background="new"
   height="22"
   width="22"
   id="svg7384">
  <metadata
     id="metadata32">
    <rdf:RDF>
      <cc:Work
         rdf:about="">
        <dc:format>image/svg+xml</dc:format>
        <dc:type
           rdf:resource="http://purl.org/dc/dcmitype/StillImage" />
        <dc:title />
      </cc:Work>
    </rdf:RDF>
  </metadata>
  <sodipodi:namedview
     inkscape:document-rotation="0"
     inkscape:lockguides="true"
     showgrid="false"
     pagecolor="#ffffff"
     objecttolerance="10"
     inkscape:zoom="6.2939505"
     inkscape:window-y="0"
     inkscape:window-x="0"
     inkscape:window-width="1920"
     inkscape:window-maximized="1"
     inkscape:window-height="1024"
     inkscape:snap-bbox-edge-midpoints="true"
     inkscape:snap-bbox="true"
     inkscape:pageshadow="2"
     inkscape:pageopacity="0"
     inkscape:cy="6.4896063"
     inkscape:cx="71.850113"
     inkscape:current-layer="svg7384"
     inkscape:bbox-nodes="true"
     guidetolerance="10"
     gridtolerance="10"
     borderopacity="1"
     bordercolor="#000000"
     id="namedview10">
    <inkscape:grid
       type="xygrid"
       id="grid39" />
  </sodipodi:namedview>
  <defs
     id="defs7386">
    <style
       id="current-color-scheme" />
  </defs>
  <g
     id="disk-quota">
    <path
       style="fill:#d7f1f8;fill-opacity:1"
       inkscape:connector-curvature="0"
       fill="#dedede"
       d="M 6,2 C 4.892,2 4,2.892 4,4 v 14 c 0,1.108 0.892,2 2,2 h 10 c 1.108,0 2,-0.892 2,-2 V 4 C 18,2.892 17.108,2 16,2 Z M 6,4 H 7 V 6 H 6 Z M 8,4 H 9 V 6 H 8 Z m 2,0 h 1 v 2 h -1 z m 2,0 h 1 v 2 h -1 z m 2,1 h 1 v 1 h -1 z m -3,2 a 5,5 0 0 1 5,5 5,5 0 0 1 -5,5 5,5 0 0 1 -5,-5 5,5 0 0 1 5,-5 z m 5,10 a 1,1 0 0 1 1,1 1,1 0 0 1 -1,1 1,1 0 0 1 -1,-1 1,1 0 0 1 1,-1 z"
       id="path15" />
    <path
       style="opacity:1;fill:#0085c7;fill-opacity:1;fill-rule:evenodd;stroke:#d3dae3;stroke-opacity:1"
       inkscape:connector-curvature="0"
       d="m 11,7 a 5,5 0 0 0 -5,5 5,5 0 0 0 5,5 5,5 0 0 0 5,-5 h -5 z"
       id="path17" />
    <path
       inkscape:connector-curvature="0"
       opacity="0"
       d="M 0,0 H 22 V 22 H 0 Z"
       id="path19" />
    <g
       fill="#dedede"
       id="g23">
      <circle
         style="fill:#7e68cb;fill-opacity:1"
         r="2"
         cy="12"
         cx="11"
         id="circle21" />
    </g>
  </g>
  <g
     transform="translate(32)"
     id="disk-quota-low">
    <path
       style="fill:#d7f1f8;fill-opacity:1"
       inkscape:connector-curvature="0"
       fill="#dedede"
       d="M 6,2 C 4.892,2 4,2.892 4,4 v 14 c 0,1.108 0.892,2 2,2 h 10 c 1.108,0 2,-0.892 2,-2 V 4 C 18,2.892 17.108,2 16,2 Z M 6,4 H 7 V 6 H 6 Z M 8,4 H 9 V 6 H 8 Z m 2,0 h 1 v 2 h -1 z m 2,0 h 1 v 2 h -1 z m 2,1 h 1 v 1 h -1 z m -3,2 a 5,5 0 0 1 5,5 5,5 0 0 1 -5,5 5,5 0 0 1 -5,-5 5,5 0 0 1 5,-5 z m 5,10 a 1,1 0 0 1 1,1 1,1 0 0 1 -1,1 1,1 0 0 1 -1,-1 1,1 0 0 1 1,-1 z"
       id="path53" />
    <path
       style="opacity:1;fill:#7e68cb;fill-opacity:1;stroke:#d3dae3;stroke-opacity:1"
       inkscape:connector-curvature="0"
       d="m 11,7 a 5,5 0 0 0 -5,5 5,5 0 0 0 5,5 5,5 0 0 0 5,-5 h -5 z"
       id="path55" />
    <path
       inkscape:connector-curvature="0"
       opacity="0"
       d="M 0,0 H 22 V 22 H 0 Z"
       id="path57" />
    <g
       fill="#dedede"
       id="g61">
      <circle
         style="fill:#0085c7;fill-opacity:1"
         r="2"
         cy="12"
         cx="11"
         id="circle59" />
    </g>
  </g>
  <g
     transform="translate(59)"
     id="disk-quota-high">
    <path
       style="fill:#d7f1f8;fill-opacity:1"
       inkscape:connector-curvature="0"
       fill="#dedede"
       d="M 6,2 C 4.892,2 4,2.892 4,4 v 14 c 0,1.108 0.892,2 2,2 h 10 c 1.108,0 2,-0.892 2,-2 V 4 C 18,2.892 17.108,2 16,2 Z M 6,4 H 7 V 6 H 6 Z M 8,4 H 9 V 6 H 8 Z m 2,0 h 1 v 2 h -1 z m 2,0 h 1 v 2 h -1 z m 2,1 h 1 v 1 h -1 z m -3,2 a 5,5 0 0 1 5,5 5,5 0 0 1 -5,5 5,5 0 0 1 -5,-5 5,5 0 0 1 5,-5 z m 5,10 a 1,1 0 0 1 1,1 1,1 0 0 1 -1,1 1,1 0 0 1 -1,-1 1,1 0 0 1 1,-1 z"
       id="path65" />
    <path
       style="opacity:1;fill:#ff2a7f;stroke:#d3dae3;stroke-opacity:1"
       inkscape:connector-curvature="0"
       d="m 11,7 a 5,5 0 0 0 -5,5 5,5 0 0 0 5,5 5,5 0 0 0 5,-5 h -5 z"
       id="path67" />
    <path
       inkscape:connector-curvature="0"
       opacity="0"
       d="M 0,0 H 22 V 22 H 0 Z"
       id="path69" />
    <g
       fill="#dedede"
       id="g73">
      <circle
         style="fill:#ffb380;fill-opacity:1"
         r="2"
         cy="12"
         cx="11"
         id="circle71" />
    </g>
  </g>
  <g
     transform="translate(-34)"
     id="disk-quota-critical">
    <path
       style="fill:#d7f1f8;fill-opacity:1"
       inkscape:connector-curvature="0"
       fill="#dedede"
       d="m 126,2 c -1.108,0 -2,0.892 -2,2 v 14 c 0,1.108 0.892,2 2,2 h 10 c 1.108,0 2,-0.892 2,-2 V 4 c 0,-1.108 -0.892,-2 -2,-2 z m 0,2 h 1 v 2 h -1 z m 2,0 h 1 v 2 h -1 z m 2,0 h 1 v 2 h -1 z m 2,0 h 1 v 2 h -1 z m 2,1 h 1 v 1 h -1 z m -3,2 a 5,5 0 0 1 5,5 5,5 0 0 1 -5,5 5,5 0 0 1 -5,-5 5,5 0 0 1 5,-5 z m 5,10 a 1,1 0 0 1 1,1 1,1 0 0 1 -1,1 1,1 0 0 1 -1,-1 1,1 0 0 1 1,-1 z"
       id="path77" />
    <path
       style="opacity:0.6;fill:#ff2a7f;stroke:#a1b4ba;stroke-opacity:1"
       inkscape:connector-curvature="0"
       d="m 131,7 a 5,5 0 0 0 -5,5 5,5 0 0 0 5,5 5,5 0 0 0 5,-5 h -5 z"
       id="path79" />
    <path
       inkscape:connector-curvature="0"
       opacity="0"
       d="m 120,0 h 22 v 22 h -22 z"
       id="path81" />
    <g
       fill="#dedede"
       transform="translate(120)"
       id="g85">
      <circle
         style="fill:#d40055;fill-opacity:1"
         r="2"
         cy="12"
         cx="11"
         id="circle83" />
    </g>
    <path
       style="fill:#d40055"
       inkscape:connector-curvature="0"
       fill="#dc6e2e"
       d="m 139,11 v 5 h 2 v -5 z m 0,6 v 2 h 2 v -2 z"
       id="path24" />
  </g>
</svg>
