<?xml version="1.0" encoding="UTF-8" standalone="no"?>
<svg
   xmlns:dc="http://purl.org/dc/elements/1.1/"
   xmlns:cc="http://creativecommons.org/ns#"
   xmlns:rdf="http://www.w3.org/1999/02/22-rdf-syntax-ns#"
   xmlns:svg="http://www.w3.org/2000/svg"
   xmlns="http://www.w3.org/2000/svg"
   xmlns:sodipodi="http://sodipodi.sourceforge.net/DTD/sodipodi-0.dtd"
   xmlns:inkscape="http://www.inkscape.org/namespaces/inkscape"
   viewBox="0 0 32 32"
   sodipodi:docname="kdeconnect.svg"
   inkscape:version="1.0 (4035a4fb49, 2020-05-01)"
   version="1.1"
   id="svg3869"
   height="32"
   width="32">
  <defs
     id="defs3871">
    <style
       id="current-color-scheme"
       type="text/css">
      .ColorScheme-Text
      </style>
  </defs>
  <sodipodi:namedview
     showguides="false"
     inkscape:document-rotation="0"
     inkscape:bbox-nodes="true"
     inkscape:snap-bbox="true"
     inkscape:showpageshadow="false"
     inkscape:window-maximized="1"
     inkscape:window-y="0"
     inkscape:window-x="0"
     inkscape:window-height="1024"
     inkscape:window-width="1920"
     fit-margin-bottom="0"
     fit-margin-right="0"
     fit-margin-left="0"
     fit-margin-top="0"
     showgrid="false"
     inkscape:current-layer="layer1"
     inkscape:document-units="px"
     inkscape:cy="10.518065"
     inkscape:cx="16.784029"
     inkscape:zoom="8"
     inkscape:pageshadow="2"
     inkscape:pageopacity="0"
     borderopacity="1.0"
     bordercolor="#666666"
     pagecolor="#ffffff"
     id="base">
    <inkscape:grid
       originy="4.9999826"
       originx="5"
       id="grid4132"
       type="xygrid" />
    <sodipodi:guide
       inkscape:locked="false"
       id="guide4138"
       orientation="18,0"
       position="7,25" />
    <sodipodi:guide
       inkscape:locked="false"
       id="guide4140"
       orientation="0,18"
       position="7,7" />
    <sodipodi:guide
       inkscape:locked="false"
       id="guide4142"
       orientation="-18,0"
       position="25,7" />
    <sodipodi:guide
       inkscape:locked="false"
       id="guide4144"
       orientation="0,-18"
       position="25,25" />
    <sodipodi:guide
       inkscape:locked="false"
       id="guide4146"
       orientation="16,0"
       position="8,24" />
    <sodipodi:guide
       inkscape:locked="false"
       id="guide4148"
       orientation="0,16"
       position="8,8" />
    <sodipodi:guide
       inkscape:locked="false"
       id="guide4150"
       orientation="-16,0"
       position="24,8" />
    <sodipodi:guide
       inkscape:locked="false"
       id="guide4152"
       orientation="0,-16"
       position="24,24" />
    <sodipodi:guide
       inkscape:locked="false"
       id="guide4265"
       orientation="28,0"
       position="2,29.999997" />
    <sodipodi:guide
       inkscape:locked="false"
       id="guide4267"
       orientation="0,28"
       position="2,1.9999974" />
    <sodipodi:guide
       inkscape:locked="false"
       id="guide4269"
       orientation="-28,0"
       position="30,1.9999974" />
    <sodipodi:guide
       inkscape:locked="false"
       id="guide4271"
       orientation="0,-28"
       position="30,29.999997" />
  </sodipodi:namedview>
  <metadata
     id="metadata3874">
    <rdf:RDF>
      <cc:Work
         rdf:about="">
        <dc:format>image/svg+xml</dc:format>
        <dc:type
           rdf:resource="http://purl.org/dc/dcmitype/StillImage" />
        <dc:title />
      </cc:Work>
    </rdf:RDF>
  </metadata>
  <g
     transform="translate(-321,-529.36218)"
     id="layer1"
     inkscape:groupmode="layer"
     inkscape:label="Capa 1">
    <g
       id="kdeconnect">
      <rect
         style="opacity:1;fill:none;fill-opacity:1;stroke:none;stroke-width:0.1;stroke-linecap:square;stroke-linejoin:miter;stroke-miterlimit:4;stroke-dasharray:none;stroke-dashoffset:0;stroke-opacity:1"
         id="rect4436"
         width="32"
         height="32"
         x="321"
         y="529.36218" />
      <path
         id="rect4156-2"
         d="m 331.00001,531.36218 11.99998,0 c 1.108,0 2.00001,0.89201 2.00001,2.00002 l 0,23.99995 c 0,1.10801 -0.89201,2.00002 -2.00001,2.00002 l -11.99998,0 c -1.108,0 -2.00001,-0.89201 -2.00001,-2.00002 l 0,-23.99995 c 0,-1.10801 0.89201,-2.00002 2.00001,-2.00002 z"
         style="color:#000000;clip-rule:nonzero;display:inline;overflow:visible;visibility:visible;opacity:1;isolation:auto;mix-blend-mode:normal;color-interpolation:sRGB;color-interpolation-filters:linearRGB;solid-color:#000000;solid-opacity:1;fill:#47beff;fill-opacity:1;fill-rule:nonzero;stroke:none;stroke-width:2;stroke-linecap:butt;stroke-linejoin:miter;stroke-miterlimit:4;stroke-dasharray:none;stroke-dashoffset:0;stroke-opacity:1;color-rendering:auto;image-rendering:auto;shape-rendering:auto;text-rendering:auto;enable-background:accumulate" />
      <rect
         ry="1.9999974"
         y="533.36218"
         x="329"
         height="24.000015"
         width="16"
         id="rect4156-3-9"
         style="color:#000000;clip-rule:nonzero;display:inline;overflow:visible;visibility:visible;opacity:1;isolation:auto;mix-blend-mode:normal;color-interpolation:sRGB;color-interpolation-filters:linearRGB;solid-color:#000000;solid-opacity:1;fill:#d7f1f8;fill-opacity:1;fill-rule:nonzero;stroke:none;stroke-width:2;stroke-linecap:butt;stroke-linejoin:miter;stroke-miterlimit:4;stroke-dasharray:none;stroke-dashoffset:0;stroke-opacity:1;color-rendering:auto;image-rendering:auto;shape-rendering:auto;text-rendering:auto;enable-background:accumulate" />
      <path
         sodipodi:nodetypes="ccccccccccccccccccccc"
         inkscape:connector-curvature="0"
         id="path6302-1"
         d="m 331.4375,542.73716 c -0.46095,0.005 -0.92107,0.0398 -1.37745,0.10481 l -0.53636,2.5708 c -0.17627,0.046 -0.35092,0.0978 -0.52369,0.15551 l 0,3.5166 c 0.74041,-0.43032 1.58113,-0.65801 2.4375,-0.66016 2.69238,0 4.875,2.18262 4.875,4.875 -0.002,1.63522 -0.82264,3.16079 -2.18676,4.0625 l 4.33226,0 c 0.3897,-0.67017 0.68148,-1.39266 0.86647,-2.1455 l 2.57397,-0.53954 c 0.0639,-0.45644 0.0978,-0.91658 0.10156,-1.37744 -0.005,-0.46095 -0.0398,-0.92107 -0.10481,-1.37745 l -2.5708,-0.53637 c -0.19733,-0.81487 -0.51958,-1.59427 -0.95532,-2.31055 l 1.44092,-2.20264 c -0.5631,-0.72985 -1.21931,-1.38287 -1.95192,-1.94238 l -2.19629,1.44092 c -0.71628,-0.43574 -1.49568,-0.758 -2.31053,-0.95532 l -0.53638,-2.57715 c -0.45645,-0.0639 -0.91659,-0.0978 -1.37745,-0.10156 z"
         style="color:#000000;clip-rule:nonzero;display:inline;overflow:visible;visibility:visible;opacity:1;isolation:auto;mix-blend-mode:normal;color-interpolation:sRGB;color-interpolation-filters:linearRGB;solid-color:#000000;solid-opacity:1;fill:#0055d4;fill-opacity:1;fill-rule:nonzero;stroke:none;stroke-width:2;stroke-linecap:butt;stroke-linejoin:miter;stroke-miterlimit:4;stroke-dasharray:none;stroke-dashoffset:0;stroke-opacity:1;color-rendering:auto;image-rendering:auto;shape-rendering:auto;text-rendering:auto;enable-background:accumulate" />
    </g>
    <g
       id="16-16-kdeconnect">
      <rect
         style="opacity:1;fill:none;fill-opacity:1;stroke:none;stroke-width:0.10079043;stroke-linecap:square;stroke-linejoin:miter;stroke-miterlimit:4;stroke-dasharray:none;stroke-dashoffset:0;stroke-opacity:1"
         id="rect4442"
         width="16"
         height="16"
         x="303"
         y="537.36218" />
      <rect
         ry="0.99999738"
         y="539.36218"
         x="307"
         height="12.000015"
         width="8"
         id="rect4156-27"
         style="color:#000000;clip-rule:nonzero;display:inline;overflow:visible;visibility:visible;opacity:1;isolation:auto;mix-blend-mode:normal;color-interpolation:sRGB;color-interpolation-filters:linearRGB;solid-color:#000000;solid-opacity:1;fill:#47beff;fill-opacity:1;fill-rule:nonzero;stroke:none;stroke-width:2;stroke-linecap:butt;stroke-linejoin:miter;stroke-miterlimit:4;stroke-dasharray:none;stroke-dashoffset:0;stroke-opacity:1;color-rendering:auto;image-rendering:auto;shape-rendering:auto;text-rendering:auto;enable-background:accumulate" />
      <rect
         ry="1.0000148"
         y="540.36218"
         x="307"
         height="10.000015"
         width="8"
         id="rect4156-3-0"
         style="color:#000000;clip-rule:nonzero;display:inline;overflow:visible;visibility:visible;opacity:1;isolation:auto;mix-blend-mode:normal;color-interpolation:sRGB;color-interpolation-filters:linearRGB;solid-color:#000000;solid-opacity:1;fill:#d7f1f8;fill-opacity:1;fill-rule:nonzero;stroke:none;stroke-width:2;stroke-linecap:butt;stroke-linejoin:miter;stroke-miterlimit:4;stroke-dasharray:none;stroke-dashoffset:0;stroke-opacity:1;color-rendering:auto;image-rendering:auto;shape-rendering:auto;text-rendering:auto;enable-background:accumulate" />
      <path
         sodipodi:nodetypes="ccccccccccccccccccccc"
         inkscape:connector-curvature="0"
         id="path6302-9"
         d="m 308.33333,542.3622 c -0.25214,0.003 -0.50383,0.0218 -0.75347,0.0573 l -0.2934,1.40625 c -0.0964,0.0252 -0.19195,0.0535 -0.28646,0.0851 l 0,1.92361 c 0.40501,-0.23539 0.86489,-0.35994 1.33333,-0.36111 1.47276,0 2.66667,1.19391 2.66667,2.66667 -7.9e-4,0.89448 -0.44999,1.72898 -1.19618,2.22222 l 2.36979,0 c 0.21317,-0.36659 0.37278,-0.7618 0.47397,-1.17361 l 1.40798,-0.29513 c 0.0349,-0.24968 0.0535,-0.50138 0.0556,-0.75348 -0.003,-0.25214 -0.0218,-0.50383 -0.0573,-0.75347 l -1.40625,-0.2934 c -0.10793,-0.44574 -0.28421,-0.87208 -0.52257,-1.26389 l 0.7882,-1.20487 c -0.30802,-0.39923 -0.66697,-0.75644 -1.06772,-1.06249 l -1.20138,0.78819 c -0.39182,-0.23835 -0.81816,-0.41463 -1.26389,-0.52257 l -0.2934,-1.40972 c -0.24968,-0.0349 -0.50138,-0.0535 -0.75348,-0.0556 z"
         style="color:#000000;clip-rule:nonzero;display:inline;overflow:visible;visibility:visible;opacity:1;isolation:auto;mix-blend-mode:normal;color-interpolation:sRGB;color-interpolation-filters:linearRGB;solid-color:#000000;solid-opacity:1;fill:#0055d4;fill-opacity:1;fill-rule:nonzero;stroke:none;stroke-width:2;stroke-linecap:butt;stroke-linejoin:miter;stroke-miterlimit:4;stroke-dasharray:none;stroke-dashoffset:0;stroke-opacity:1;color-rendering:auto;image-rendering:auto;shape-rendering:auto;text-rendering:auto;enable-background:accumulate" />
    </g>
    <g
       transform="translate(-1,0)"
       id="22-22-kdeconnect">
      <rect
         ry="0.99999738"
         y="536.36218"
         x="362"
         height="17.999998"
         width="10"
         id="rect4156"
         style="color:#000000;clip-rule:nonzero;display:inline;overflow:visible;visibility:visible;opacity:1;isolation:auto;mix-blend-mode:normal;color-interpolation:sRGB;color-interpolation-filters:linearRGB;solid-color:#000000;solid-opacity:1;fill:#47beff;fill-opacity:1;fill-rule:nonzero;stroke:none;stroke-width:2;stroke-linecap:butt;stroke-linejoin:miter;stroke-miterlimit:4;stroke-dasharray:none;stroke-dashoffset:0;stroke-opacity:1;color-rendering:auto;image-rendering:auto;shape-rendering:auto;text-rendering:auto;enable-background:accumulate" />
      <rect
         ry="1.0000148"
         y="537.36218"
         x="362"
         height="15.999997"
         width="10"
         id="rect4156-3"
         style="color:#000000;clip-rule:nonzero;display:inline;overflow:visible;visibility:visible;opacity:1;isolation:auto;mix-blend-mode:normal;color-interpolation:sRGB;color-interpolation-filters:linearRGB;solid-color:#000000;solid-opacity:1;fill:#d7f1f8;fill-opacity:1;fill-rule:nonzero;stroke:none;stroke-width:2;stroke-linecap:butt;stroke-linejoin:miter;stroke-miterlimit:4;stroke-dasharray:none;stroke-dashoffset:0;stroke-opacity:1;color-rendering:auto;image-rendering:auto;shape-rendering:auto;text-rendering:auto;enable-background:accumulate" />
      <rect
         y="534.36218"
         x="356"
         height="22"
         width="22"
         id="rect4444"
         style="opacity:1;fill:none;fill-opacity:1;stroke:none;stroke-width:0.13858683;stroke-linecap:square;stroke-linejoin:miter;stroke-miterlimit:4;stroke-dasharray:none;stroke-dashoffset:0;stroke-opacity:1" />
      <path
         sodipodi:nodetypes="ccccccccccccccccccccc"
         inkscape:connector-curvature="0"
         id="path6302"
         d="m 363.5,544.36218 c -0.28366,0.003 -0.56681,0.0245 -0.84766,0.0645 l -0.33007,1.58203 c -0.10847,0.0283 -0.21595,0.0602 -0.32227,0.0957 l 0,2.16406 c 0.45564,-0.26481 0.973,-0.40493 1.5,-0.40625 1.65685,0 3,1.34315 3,3 -8.9e-4,1.00629 -0.50624,1.9451 -1.3457,2.5 l 2.66601,0 c 0.23981,-0.41241 0.41937,-0.85702 0.53321,-1.32031 l 1.58398,-0.33202 c 0.0393,-0.28089 0.0602,-0.56405 0.0625,-0.84766 -0.003,-0.28366 -0.0245,-0.56681 -0.0645,-0.84766 l -1.58203,-0.33007 c -0.12143,-0.50146 -0.31974,-0.98109 -0.58789,-1.42188 l 0.88672,-1.35547 c -0.34652,-0.44914 -0.75034,-0.851 -1.20118,-1.19531 l -1.35156,0.88672 c -0.44079,-0.26815 -0.92042,-0.46646 -1.42187,-0.58789 l -0.33008,-1.58594 c -0.28089,-0.0393 -0.56405,-0.0602 -0.84766,-0.0625 z"
         style="color:#000000;clip-rule:nonzero;display:inline;overflow:visible;visibility:visible;opacity:1;isolation:auto;mix-blend-mode:normal;color-interpolation:sRGB;color-interpolation-filters:linearRGB;solid-color:#000000;solid-opacity:1;fill:#0055d4;fill-opacity:1;fill-rule:nonzero;stroke:none;stroke-width:2;stroke-linecap:butt;stroke-linejoin:miter;stroke-miterlimit:4;stroke-dasharray:none;stroke-dashoffset:0;stroke-opacity:1;color-rendering:auto;image-rendering:auto;shape-rendering:auto;text-rendering:auto;enable-background:accumulate" />
    </g>
  </g>
</svg>
