<?xml version="1.0" encoding="UTF-8" standalone="no"?>
<svg
   xmlns:dc="http://purl.org/dc/elements/1.1/"
   xmlns:cc="http://creativecommons.org/ns#"
   xmlns:rdf="http://www.w3.org/1999/02/22-rdf-syntax-ns#"
   xmlns:svg="http://www.w3.org/2000/svg"
   xmlns="http://www.w3.org/2000/svg"
   xmlns:sodipodi="http://sodipodi.sourceforge.net/DTD/sodipodi-0.dtd"
   xmlns:inkscape="http://www.inkscape.org/namespaces/inkscape"
   width="32"
   height="32"
   version="1"
   id="svg12"
   sodipodi:docname="klipper.svg"
   inkscape:version="1.0.1 (3bc2e813f5, 2020-09-07)">
  <metadata
     id="metadata18">
    <rdf:RDF>
      <cc:Work
         rdf:about="">
        <dc:format>image/svg+xml</dc:format>
        <dc:type
           rdf:resource="http://purl.org/dc/dcmitype/StillImage" />
      </cc:Work>
    </rdf:RDF>
  </metadata>
  <defs
     id="defs16" />
  <sodipodi:namedview
     pagecolor="#ffffff"
     bordercolor="#666666"
     borderopacity="1"
     objecttolerance="10"
     gridtolerance="10"
     guidetolerance="10"
     inkscape:pageopacity="0"
     inkscape:pageshadow="2"
     inkscape:window-width="1920"
     inkscape:window-height="1016"
     id="namedview14"
     showgrid="false"
     inkscape:zoom="9.8125"
     inkscape:cx="14.387781"
     inkscape:cy="10.553407"
     inkscape:window-x="0"
     inkscape:window-y="0"
     inkscape:window-maximized="1"
     inkscape:current-layer="svg12"
     inkscape:document-rotation="0">
    <inkscape:grid
       type="xygrid"
       id="grid874"
       originx="0"
       originy="0" />
  </sodipodi:namedview>
  <g
     id="klipper">
    <g
       id="g935">
      <rect
         style="opacity:0.00100002"
         width="32"
         height="32"
         x="0"
         y="0"
         id="rect7" />
      <path
         d="m 23.55563,6.0574915 h -2.693195 c 0.282209,0.2841624 0.510223,0.6117791 0.650351,0.9765029 h 2.042844 c 0.378395,0 0.687458,0.3085749 0.687458,0.6879463 V 26.336039 c 0,0.378883 -0.309063,0.687458 -0.687458,0.687458 H 8.663961 c -0.379371,0 -0.687458,-0.308575 -0.687458,-0.687458 V 7.7219407 c 0,-0.3793714 0.308087,-0.6879463 0.687458,-0.6879463 h 2.041868 C 10.846933,6.6692706 11.07397,6.3416539 11.357156,6.0574915 H 8.663961 C 7.746536,6.0574915 7,6.804028 7,7.7219407 V 26.336039 C 7,27.253952 7.746536,28 8.663961,28 H 23.55563 c 0.917425,0 1.663961,-0.746048 1.663961,-1.663961 V 7.7219407 c 0,-0.9179127 -0.746536,-1.6644492 -1.663961,-1.6644492 z"
         id="path2"
         style="fill:#c8e0e7;stroke-width:0.488251;fill-opacity:1" />
      <path
         d="m 13.758377,10.97809 h 4.702349 c 1.241624,0 2.252304,-0.855905 2.252304,-1.908087 V 7.9655782 c 0,-0.9994507 -0.911565,-1.8211779 -2.06628,-1.9017394 C 18.404577,4.874946 17.36802,4 16.110284,4 14.852548,4 13.81599,4.874946 13.573818,6.0638388 12.418126,6.1439118 11.507537,6.9661275 11.507537,7.9655782 V 9.070003 c -9.76e-4,1.052182 1.009216,1.908087 2.25084,1.908087 z M 12.483064,7.9655782 c 0,-0.504852 0.58346,-0.9315838 1.274824,-0.9315838 h 0.249985 c 0.265121,0 0.482392,-0.2119011 0.488252,-0.4770217 0.02099,-0.8856881 0.729447,-1.5799817 1.613671,-1.5799817 0.883246,0 1.591699,0.6942936 1.612694,1.5799817 0.0068,0.2651206 0.223131,0.4770217 0.488252,0.4770217 h 0.249984 c 0.691364,0 1.275801,0.4267318 1.275801,0.9315838 V 9.070003 c 0,0.5048519 -0.584437,0.931584 -1.275801,0.931584 h -4.702349 c -0.691364,0 -1.274825,-0.4267321 -1.274825,-0.931584 V 7.9655782 Z"
         id="path4-3"
         style="stroke-width:0.488251;fill:#c8e0e7;fill-opacity:1" />
      <circle
         cx="16.109797"
         cy="6.5950561"
         r="0.75288379"
         id="circle6"
         style="stroke-width:0.488251;fill:#c8e0e7;fill-opacity:1" />
      <path
         d="m 13.76863,12.546842 c 0,-0.269515 -0.218249,-0.488252 -0.488252,-0.488252 H 10.70827 c -0.269027,0 -0.488252,0.218737 -0.488252,0.488252 v 2.572108 c 0,0.270003 0.219225,0.488252 0.488252,0.488252 h 2.572108 c 0.270003,0 0.488252,-0.218249 0.488252,-0.488252 z m -0.976503,2.083369 h -1.595606 v -1.595606 h 1.595606 z"
         id="path8"
         style="stroke-width:0.488251;fill:#c8e0e7;fill-opacity:1" />
      <rect
         x="15.521454"
         y="13.344643"
         width="6.1729631"
         height="0.9765029"
         id="rect10"
         style="stroke-width:0.488251;fill:#00aaff;fill-opacity:1" />
      <path
         d="m 13.76863,17.5065 c 0,-0.269515 -0.218249,-0.488252 -0.488252,-0.488252 H 10.70827 c -0.269027,0 -0.488252,0.218737 -0.488252,0.488252 v 2.572108 c 0,0.270004 0.219225,0.488252 0.488252,0.488252 h 2.572108 c 0.270003,0 0.488252,-0.218248 0.488252,-0.488252 z m -0.976503,2.083857 h -1.595606 v -1.595606 h 1.595606 z"
         id="path12"
         style="stroke-width:0.488251;fill:#c8e0e7;fill-opacity:1" />
      <rect
         x="15.521454"
         y="18.304792"
         width="6.1729631"
         height="0.9765029"
         id="rect14"
         style="stroke-width:0.488251;fill-opacity:1;fill:#00aaff" />
      <path
         d="M 13.280378,21.977907 H 10.70827 c -0.269027,0 -0.488252,0.218736 -0.488252,0.488251 v 2.572109 c 0,0.269515 0.219225,0.488251 0.488252,0.488251 h 2.572108 c 0.270003,0 0.488252,-0.218736 0.488252,-0.488251 v -2.572109 c 0,-0.269515 -0.218249,-0.488251 -0.488252,-0.488251 z m -0.488251,2.572108 H 11.196521 V 22.95441 h 1.595606 z"
         id="path16"
         style="stroke-width:0.488251;fill:#c8e0e7;fill-opacity:1" />
      <rect
         x="15.521454"
         y="23.264448"
         width="6.1729631"
         height="0.9765029"
         id="rect18"
         style="stroke-width:0.488251;fill:#00aaff;fill-opacity:1" />
    </g>
  </g>
  <g
     id="22-22-klipper">
    <g
       id="g961">
      <rect
         style="opacity:0.00100002"
         width="22"
         height="22"
         x="32"
         y="10"
         id="rect2" />
      <path
         d="m 48.037084,14.37166 h -1.795458 c 0.188138,0.18944 0.340151,0.407851 0.43356,0.650997 h 1.361898 c 0.252273,0 0.45831,0.205726 0.45831,0.458642 v 12.409394 c 0,0.252587 -0.206037,0.458307 -0.45831,0.458307 h -9.927777 c -0.252914,0 -0.458305,-0.20572 -0.458305,-0.458307 V 15.481299 c 0,-0.252916 0.205391,-0.458642 0.458305,-0.458642 h 1.361245 C 39.564621,14.779511 39.71598,14.5611 39.904771,14.37166 H 38.109307 C 37.49769,14.37166 37,14.86936 37,15.481299 V 27.890693 C 37,28.502638 37.49769,29 38.109307,29 h 9.927777 c 0.611623,0 1.109307,-0.497362 1.109307,-1.109307 V 15.481299 c 0,-0.611939 -0.497684,-1.109639 -1.109307,-1.109639 z"
         id="path2-6"
         style="fill:#c8e0e7;stroke-width:0.325503;fill-opacity:1" />
      <path
         d="m 41.505585,17.652063 h 3.1349 c 0.827753,0 1.501532,-0.570603 1.501532,-1.27206 v -0.736282 c 0,-0.666305 -0.607704,-1.214121 -1.377514,-1.267824 C 44.603054,13.583294 43.912015,13 43.073522,13 c -0.83849,0 -1.529529,0.583294 -1.690976,1.375897 -0.770462,0.05343 -1.377521,0.601519 -1.377521,1.267824 v 0.736282 c -6.51e-4,0.701457 0.67281,1.27206 1.50056,1.27206 z m -0.850209,-2.008342 c 0,-0.336573 0.388973,-0.621064 0.849882,-0.621064 h 0.166657 c 0.176748,0 0.321595,-0.141264 0.325501,-0.318004 0.014,-0.590466 0.486299,-1.053328 1.075782,-1.053328 0.588829,0 1.061128,0.462862 1.07513,1.053328 0.0044,0.17674 0.148753,0.318004 0.325503,0.318004 h 0.166654 c 0.460908,0 0.850531,0.284491 0.850531,0.621064 v 0.736282 c 0,0.33656 -0.389623,0.621052 -0.850531,0.621052 h -3.1349 c -0.460909,0 -0.849883,-0.284492 -0.849883,-0.621052 v -0.736282 z"
         id="path4-3-7"
         style="stroke-width:0.325503;fill:#c8e0e7;fill-opacity:1" />
      <circle
         cx="43.073196"
         cy="14.730036"
         id="circle6-5"
         style="stroke-width:0.325503;fill:#c8e0e7;fill-opacity:1"
         r="0.50192273" />
      <path
         d="m 41.51242,18.697894 c 0,-0.179679 -0.1455,-0.325494 -0.325501,-0.325494 H 39.47218 c -0.179352,0 -0.325501,0.145815 -0.325501,0.325494 v 1.714736 c 0,0.180003 0.146149,0.32551 0.325501,0.32551 h 1.714739 c 0.180001,0 0.325501,-0.145507 0.325501,-0.32551 z M 40.861418,20.0868 h -1.063737 v -1.063729 h 1.063737 z"
         id="path8-3"
         style="stroke-width:0.325503;fill:#c8e0e7;fill-opacity:1" />
      <rect
         x="42.680965"
         y="19.229753"
         width="4.1153088"
         height="0.65100193"
         id="rect10-5"
         style="stroke-width:0.325503;fill:#00aaff;fill-opacity:1" />
      <path
         d="m 41.51242,22.004338 c 0,-0.179678 -0.1455,-0.325508 -0.325501,-0.325508 H 39.47218 c -0.179352,0 -0.325501,0.14583 -0.325501,0.325508 v 1.714736 c 0,0.180004 0.146149,0.325494 0.325501,0.325494 h 1.714739 c 0.180001,0 0.325501,-0.14549 0.325501,-0.325494 z m -0.651002,1.389233 H 39.797681 V 22.32984 h 1.063737 z"
         id="path12-6"
         style="stroke-width:0.325503;fill:#c8e0e7;fill-opacity:1" />
      <rect
         x="42.680965"
         y="22.536531"
         width="4.1153088"
         height="0.65100193"
         id="rect14-2"
         style="stroke-width:0.325503;fill:#00aaff;fill-opacity:1" />
      <path
         d="M 41.186919,24.985267 H 39.47218 c -0.179352,0 -0.325501,0.145834 -0.325501,0.325509 v 1.71474 c 0,0.179675 0.146149,0.325498 0.325501,0.325498 h 1.714739 c 0.180001,0 0.325501,-0.145823 0.325501,-0.325498 v -1.71474 c 0,-0.179675 -0.1455,-0.325509 -0.325501,-0.325509 z m -0.325501,1.714747 H 39.797681 V 25.63627 h 1.063737 z"
         id="path16-9"
         style="stroke-width:0.325503;fill:#c8e0e7;fill-opacity:1" />
      <rect
         x="42.680965"
         y="25.84296"
         width="4.1153088"
         height="0.65100193"
         id="rect18-1"
         style="stroke-width:0.325503;fill:#00aaff;fill-opacity:1" />
    </g>
  </g>
</svg>
