<?xml version="1.0" encoding="UTF-8" standalone="no"?>
<svg
   xmlns:dc="http://purl.org/dc/elements/1.1/"
   xmlns:cc="http://creativecommons.org/ns#"
   xmlns:rdf="http://www.w3.org/1999/02/22-rdf-syntax-ns#"
   xmlns:svg="http://www.w3.org/2000/svg"
   xmlns="http://www.w3.org/2000/svg"
   xmlns:sodipodi="http://sodipodi.sourceforge.net/DTD/sodipodi-0.dtd"
   xmlns:inkscape="http://www.inkscape.org/namespaces/inkscape"
   inkscape:version="1.0 (4035a4fb49, 2020-05-01)"
   sodipodi:docname="printer.svg"
   xml:space="preserve"
   style="enable-background:new 0 0 31.73 31.73;"
   viewBox="0 0 31.73 31.73"
   y="0px"
   x="0px"
   id="Capa_1"
   version="1.1"><metadata
   id="metadata71"><rdf:RDF><cc:Work
       rdf:about=""><dc:format>image/svg+xml</dc:format><dc:type
         rdf:resource="http://purl.org/dc/dcmitype/StillImage" /><dc:title /></cc:Work></rdf:RDF></metadata><defs
   id="defs69" /><sodipodi:namedview
   inkscape:current-layer="Capa_1"
   inkscape:window-maximized="1"
   inkscape:window-y="0"
   inkscape:window-x="0"
   inkscape:cy="25.394031"
   inkscape:cx="55.486186"
   inkscape:zoom="9.9575578"
   showgrid="false"
   id="namedview67"
   inkscape:window-height="1024"
   inkscape:window-width="1920"
   inkscape:pageshadow="2"
   inkscape:pageopacity="0"
   guidetolerance="10"
   gridtolerance="10"
   objecttolerance="10"
   borderopacity="1"
   bordercolor="#666666"
   pagecolor="#ffffff"
   inkscape:document-rotation="0" />
<g
   id="printer"
   transform="translate(2.1661179,1.8603064)">
	<path
   style="fill:#d7f1f8;fill-opacity:1;stroke-width:0.869679"
   id="path2"
   d="M 0,25.914257 H 2.2063817 V 8.4432244 H 0 Z M 24.828542,8.4432244 V 0.917 H 13.802719 V 8.4432244 H 9.4882285 V 25.915124 H 27.594992 V 8.4432244 Z M 17.065755,22.278124 H 14.93765 v -2.12724 h 2.128105 z m 0,-3.517871 H 14.93765 v -2.125502 h 2.128105 z m 0,-3.352616 H 14.93765 V 13.28039 h 2.128105 z m 3.927489,6.870487 h -2.128109 v -2.12724 h 2.128109 z m 0,-3.517871 h -2.128109 v -2.125502 h 2.128109 z m 0,-3.352616 H 18.865135 V 13.28039 h 2.128109 z m 3.924869,6.870487 h -2.126374 v -2.12724 h 2.126374 z m 0,-3.517871 h -2.126374 v -2.125502 h 2.126374 z m 0,-3.352616 H 22.791739 V 13.28039 h 2.126374 z M 26.22786,11.42971 H 12.401658 V 9.546851 h 1.401061 v 0.940993 H 24.828542 V 9.546851 h 1.399318 c 0,0 0,1.882859 0,1.882859 z M 3.0743244,26.917 H 8.6385467 V 6.4960075 H 3.0743244 Z M 23.36399,3.0129323 H 15.511644 V 2.2763125 h 7.852346 c 0,0 0,0.7366198 0,0.7366198 z m 0,1.9620023 H 15.511644 V 4.2409232 h 7.852346 c 0,0 0,0.7340114 0,0.7340114 z" />
	<g
   id="g4">
	</g>
	<g
   id="g6">
	</g>
	<g
   id="g8">
	</g>
	<g
   id="g10">
	</g>
	<g
   id="g12">
	</g>
	<g
   id="g14">
	</g>
	<g
   id="g16">
	</g>
	<g
   id="g18">
	</g>
	<g
   id="g20">
	</g>
	<g
   id="g22">
	</g>
	<g
   id="g24">
	</g>
	<g
   id="g26">
	</g>
	<g
   id="g28">
	</g>
	<g
   id="g30">
	</g>
	<g
   id="g32">
	</g>
</g>
<g
   id="g36">
</g>
<g
   id="g38">
</g>
<g
   id="g40">
</g>
<g
   id="g42">
</g>
<g
   id="g44">
</g>
<g
   id="g46">
</g>
<g
   id="g48">
</g>
<g
   id="g50">
</g>
<g
   id="g52">
</g>
<g
   id="g54">
</g>
<g
   id="g56">
</g>
<g
   id="g58">
</g>
<g
   id="g60">
</g>
<g
   id="g62">
</g>
<g
   id="g64">
</g>
</svg>
