<?xml version="1.0" encoding="UTF-8" standalone="no"?>
<svg
   version="1.1"
   id="svg2"
   viewBox="0 0 54 64"
   sodipodi:docname="view.svg"
   inkscape:version="1.1.2 (0a00cf5339, 2022-02-04)"
   xmlns:inkscape="http://www.inkscape.org/namespaces/inkscape"
   xmlns:sodipodi="http://sodipodi.sourceforge.net/DTD/sodipodi-0.dtd"
   xmlns="http://www.w3.org/2000/svg"
   xmlns:svg="http://www.w3.org/2000/svg"
   xmlns:rdf="http://www.w3.org/1999/02/22-rdf-syntax-ns#"
   xmlns:cc="http://creativecommons.org/ns#"
   xmlns:dc="http://purl.org/dc/elements/1.1/">
  <sodipodi:namedview
     pagecolor="#ffffff"
     bordercolor="#666666"
     borderopacity="1"
     objecttolerance="10"
     gridtolerance="10"
     guidetolerance="10"
     inkscape:pageopacity="0"
     inkscape:pageshadow="2"
     inkscape:window-width="1920"
     inkscape:window-height="1016"
     id="namedview18"
     showgrid="false"
     inkscape:zoom="5.4544901"
     inkscape:cx="23.925243"
     inkscape:cy="64.350653"
     inkscape:window-x="0"
     inkscape:window-y="0"
     inkscape:window-maximized="1"
     inkscape:current-layer="svg2"
     inkscape:pagecheckerboard="0" />
  <metadata
     id="metadata22">
    <rdf:RDF>
      <cc:Work
         rdf:about="">
        <dc:format>image/svg+xml</dc:format>
        <dc:type
           rdf:resource="http://purl.org/dc/dcmitype/StillImage" />
      </cc:Work>
    </rdf:RDF>
  </metadata>
  <defs
     id="defs3615">
    <style
       type="text/css"
       id="current-color-scheme">
      .ColorScheme-Text {
        color:#31363b;
      }
      .ColorScheme-Background{
        color:#E9E8E8;
      }
      .ColorScheme-ViewText {
        color:#31363b;
      }
      .ColorScheme-ViewBackground{
        color:#ffffff;
      }
      .ColorScheme-ViewHover {
        color:#000000;
      }
      .ColorScheme-ViewFocus{
        color:#5a5a5a;
      }
      .ColorScheme-ButtonText {
        color:#31363b;
      }
      .ColorScheme-ButtonBackground{
        color:#E9E8E8;
      }
      .ColorScheme-ButtonHover {
        color:#1489ff;
      }
      .ColorScheme-ButtonFocus{
        color:#2B74C7;
      }
</style>
  </defs>
  <g
     id="22-22-view-refresh">
    <path
       id="path7"
       class="ColorScheme-Text"
       d="m 11,13 c -1.441714,0 -2.903211,0.36925 -4.069,1.03125 l 0.819,0.6875 0.062,0.0625 2.7505,2.78125 0.8185,-0.8185 -2.4,-2.369 C 9.679332,14.14031 10.220394,14.2 11,14.2 c 3.87797,0 6.8,2.922 6.8,6.8 0,1.1625 -0.283625,2.25585 -0.781,3.21875 l 0.94975,0.75 C 18.630801,23.80295 19,22.4417 19,21 19,16.568 15.431966,13 11,13 Z M 4.03125,17.03125 C 3.369199,18.19705 3,19.5583 3,21 c 0,4.432 3.568034,8 8,8 1.441714,0 2.802961,-0.36925 3.96875,-1.03125 l -0.6875,-0.6875 -0.0625,-0.0625 L 11.4375,24.4375 10.75,25.15625 13.21875,27.625 C 12.520418,27.85969 11.778873,27.833781 11,27.8 7.0360693,27.628079 4.1105177,24.699035 4.2,21 4.2281135,19.83784 4.283876,18.7439 4.78125,17.781 Z"
       style="color:#31363b;fill:#e3f3fc;fill-opacity:1;stroke:none"
       inkscape:connector-curvature="0"
       sodipodi:nodetypes="sccccccssccsscssccccccsscc" />
    <path
       id="path9"
       d="M 0,10 V 32 H 22 V 10 Z"
       style="opacity:1;fill:none" />
  </g>
  <g
     id="view-refresh">
    <path
       id="path12"
       class="ColorScheme-Text"
       d="M 38,4 C 35.859179,4.00462 33.558555,4.5818626 31.716,5.671875 L 37.093,11.05 38.014,10.060849 33.796,5.936 C 35.183764,5.323693 36.483167,5.2050188 38,5.2 c 6.075132,0 10.8,4.7248678 10.8,10.8 -0.0045,1.874364 -0.394551,3.437336 -1.31095,5.072411 L 48.328,22.08 C 49.417371,20.238622 49.994635,18.13948 50,16 50,9.372583 44.627417,4 38,4 M 27.671875,9.916016 C 26.581863,11.758571 26.004617,13.859179 26,16 c 0,6.627417 5.372583,12 12,12 2.140819,-0.0046 4.241426,-0.581863 6.08398,-1.671875 L 38.807,20.849 37.9,21.716424 42.206,26.06 C 40.817913,26.673952 39.51779,26.793997 38,26.8 32.149704,26.8 27.343467,22.075132 27.2,16 c 0.0045,-1.874364 0.380948,-3.530386 1.297347,-5.165461 z"
       style="color:#31363b;fill:#e3f3fc;fill-opacity:1;stroke:none"
       inkscape:connector-curvature="0"
       sodipodi:nodetypes="cccccccccccccccccccccc" />
    <path
       id="path14"
       d="M 22,0 V 32 H 54 V 0 Z"
       style="opacity:1;fill:none" />
  </g>
  <g
     transform="translate(0,32)"
     id="22-22-view-history">
    <path
       id="path13"
       class="ColorScheme-Text"
       d="m 11,13 c -4.431998,0 -8,3.568002 -8,8 0,4.431998 3.568002,8 8,8 4.431998,0 8,-3.568002 8,-8 0,-4.431998 -3.568002,-8 -8,-8 z m 0,1 c 3.877999,0 7,3.122001 7,7 0,3.877999 -3.122001,7 -7,7 -3.877999,0 -7,-3.122001 -7,-7 0,-3.877999 3.122001,-7 7,-7 z m -1,1 0,7 1,0 5,0 0,-1 -5,0 0,-6 -1,0 z"
       style="fill:#147ab4;fill-opacity:1;stroke:none" />
    <path
       id="path15"
       d="M 0,10 0,32 22,32 22,10 0,10 Z"
       style="opacity:1;fill:none" />
  </g>
  <g
     transform="translate(0,32)"
     id="view-history">
    <path
       id="path22"
       class="ColorScheme-Text"
       d="M 38,4 C 31.372583,4 26,9.372583 26,16 26,22.627417 31.372583,28 38,28 44.627417,28 50,22.627417 50,16 50,9.372583 44.627417,4 38,4 Z m 0,1.2 C 44.075005,5.2393081 48.632934,9.925238 48.7,16 48.76492,21.880372 44.134222,26.622729 38,26.8 32.229983,26.966746 26.996533,22.07045 27.3,16 27.607683,9.8452169 32.151907,5.1621602 38,5.2 Z M 36.9,7 36.8,17.2 H 46 V 15.8 H 38.1 L 38.2,7 Z"
       style="color:#31363b;fill:#147ab4;fill-opacity:1;stroke:none"
       inkscape:connector-curvature="0"
       sodipodi:nodetypes="ssssssssssccccccc" />
    <path
       id="path24"
       d="M 22,0 22,32 54,32 54,0 22,0 Z"
       style="opacity:1;fill:none" />
  </g>
</svg>
