<?xml version="1.0" encoding="UTF-8" standalone="no"?>
<svg
   xmlns:dc="http://purl.org/dc/elements/1.1/"
   xmlns:cc="http://creativecommons.org/ns#"
   xmlns:rdf="http://www.w3.org/1999/02/22-rdf-syntax-ns#"
   xmlns:svg="http://www.w3.org/2000/svg"
   xmlns="http://www.w3.org/2000/svg"
   xmlns:sodipodi="http://sodipodi.sourceforge.net/DTD/sodipodi-0.dtd"
   xmlns:inkscape="http://www.inkscape.org/namespaces/inkscape"
   inkscape:version="1.0 (4035a4fb49, 2020-05-01)"
   height="30"
   width="26.553432"
   sodipodi:docname="vlc.svg"
   id="svg10"
   xml:space="preserve"
   enable-background="new 0 0 1000 1000"
   viewBox="0 0 26.553432 30"
   y="0px"
   x="0px"
   version="1.1"><metadata
   id="metadata8"><rdf:RDF><cc:Work
       rdf:about=""><dc:format>image/svg+xml</dc:format><dc:type
         rdf:resource="http://purl.org/dc/dcmitype/StillImage" /></cc:Work></rdf:RDF></metadata><defs
   id="defs14" /><sodipodi:namedview
   inkscape:document-rotation="0"
   inkscape:current-layer="svg10"
   inkscape:window-maximized="1"
   inkscape:window-y="0"
   inkscape:window-x="0"
   inkscape:cy="3.5691305"
   inkscape:cx="-12.338776"
   inkscape:zoom="7.552"
   showgrid="false"
   id="namedview12"
   inkscape:window-height="1024"
   inkscape:window-width="1920"
   inkscape:pageshadow="2"
   inkscape:pageopacity="0"
   guidetolerance="10"
   gridtolerance="10"
   objecttolerance="10"
   borderopacity="1"
   bordercolor="#666666"
   pagecolor="#ffffff" />
<g
   transform="translate(-66.318972,-960.01)"
   id="g8"><g
     id="g6"
     transform="matrix(0.1,0,0,-0.1,0,512)"><path
       inkscape:connector-curvature="0"
       style="fill:#00aaff;fill-opacity:1;stroke-width:0.02164833"
       id="path4"
       d="m 784.31903,-4534.2743 c -0.35364,-1.0597 -13.59023,-39.4506 -29.38964,-85.4109 -15.79692,-45.96 -28.85906,-83.6456 -29.0357,-83.8033 -0.1769,-0.156 -3.97077,-0.3129 -8.4716,-0.3921 l -8.20728,-0.1183 -2.91188,-1.2935 c -5.42649,-2.352 -8.38414,-6.5092 -8.64829,-12.1177 -0.2203,-3.7656 0.52807,-6.1572 2.69141,-8.863 2.07376,-2.5875 4.98568,-4.4709 8.20733,-5.3742 2.73517,-0.7832 4.19097,-0.7832 88.69648,-0.7832 77.13403,0 86.17989,0.089 88.29935,0.6277 4.41159,1.1762 7.98707,3.8811 10.06048,7.607 1.05853,1.9229 1.19203,2.5868 1.19203,6.0763 0,3.4141 -0.1335,4.1975 -1.19203,6.1587 -1.49918,2.8613 -4.54428,5.5684 -7.76623,6.9003 -2.38358,1.0204 -2.95766,1.0598 -10.85511,1.2564 l -8.38412,0.1952 -3.00151,8.9408 c -3.13229,9.333 -18.35755,54.6661 -41.17014,122.4279 l -13.32585,39.6072 -13.06227,0.1191 -13.0183,0.083 z m 25.50608,-21.0982 c 2.86838,-8.5487 5.11876,-15.6079 5.03146,-15.7262 -0.13308,-0.085 -7.85374,-0.1189 -17.20925,-0.085 l -17.03218,0.119 5.3388,15.6072 5.38293,15.5703 h 6.66198 6.66398 z m 19.68042,-58.3509 c 0,-0.083 2.56026,-7.7658 5.73624,-17.138 3.13238,-9.3729 5.64943,-17.0589 5.55971,-17.1363 -0.044,-0.082 -19.59283,-0.082 -43.3766,-0.036 l -43.28765,0.1188 4.58824,13.3327 c 2.51672,7.3324 5.20814,15.0566 5.91306,17.134 l 1.36879,3.8429 h 31.72733 c 17.47323,0.01 31.77088,-0.036 31.77088,-0.117 z m 29.30193,-87.1372 3.48611,-10.3915 h 10.10436 c 11.25262,0 12.04699,-0.1179 14.34104,-2.4699 3.35247,-3.374 1.98627,-8.6279 -2.69169,-10.5098 -1.766,-0.7081 -4.72127,-0.7469 -86.75368,-0.7469 -82.03245,0 -84.99004,0.036 -86.75378,0.7469 -4.67788,1.8801 -6.04414,7.1358 -2.6914,10.5098 2.29423,2.352 3.08871,2.4699 14.38473,2.4699 h 10.10423 l 0.48452,1.2943 c 0.22047,0.6675 1.54553,4.5093 2.91179,8.51 1.36855,4.0001 2.78109,8.0767 3.13227,9.1366 l 0.7073,1.8429 h 57.85162 57.89424 z" /></g></g>
</svg>
