<?xml version="1.0" encoding="UTF-8" standalone="no"?>
<svg
   xmlns:dc="http://purl.org/dc/elements/1.1/"
   xmlns:cc="http://creativecommons.org/ns#"
   xmlns:rdf="http://www.w3.org/1999/02/22-rdf-syntax-ns#"
   xmlns:svg="http://www.w3.org/2000/svg"
   xmlns="http://www.w3.org/2000/svg"
   xmlns:sodipodi="http://sodipodi.sourceforge.net/DTD/sodipodi-0.dtd"
   xmlns:inkscape="http://www.inkscape.org/namespaces/inkscape"
   id="window"
   viewBox="0 0 32 16"
   version="1.1"
   sodipodi:docname="window.svg"
   inkscape:version="1.0 (4035a4fb49, 2020-05-01)">
  <metadata
     id="metadata28">
    <rdf:RDF>
      <cc:Work
         rdf:about="">
        <dc:format>image/svg+xml</dc:format>
        <dc:type
           rdf:resource="http://purl.org/dc/dcmitype/StillImage" />
      </cc:Work>
    </rdf:RDF>
  </metadata>
  <defs
     id="defs26" />
  <sodipodi:namedview
     inkscape:document-rotation="0"
     pagecolor="#ffffff"
     bordercolor="#666666"
     borderopacity="1"
     objecttolerance="10"
     gridtolerance="10"
     guidetolerance="10"
     inkscape:pageopacity="0"
     inkscape:pageshadow="2"
     inkscape:window-width="1920"
     inkscape:window-height="1013"
     id="namedview24"
     showgrid="false"
     inkscape:lockguides="false"
     inkscape:zoom="6.5573105"
     inkscape:cx="22.466841"
     inkscape:cy="30.853424"
     inkscape:window-x="0"
     inkscape:window-y="0"
     inkscape:window-maximized="1"
     inkscape:current-layer="window" />
  <style
     id="current-color-scheme"
     type="text/css" />
  <g
     id="window-list"
     transform="translate(-286,-545.36218)">
    <path
       id="rect3004"
       d="m 286,561.36218 h 32 v 32 h -32 z"
       fill="#333333"
       opacity="0" />
    <path
       style="fill:#d7f1f8;fill-opacity:1"
       id="rect3008"
       d="m 290,565.3622 v 10 h 10 v -10 z m 1,1 h 8 v 8 h -8 z"
       class="ColorScheme-Text"
       fill="currentColor" />
    <path
       style="fill:#d7f1f8;fill-opacity:1"
       id="rect3010"
       d="m 304,565.3622 v 10 h 10 v -10 z m 1,1 h 8 v 8 h -8 z"
       class="ColorScheme-Text"
       fill="currentColor" />
    <path
       style="fill:#d7f1f8;fill-opacity:1"
       id="rect3012"
       d="m 290,579.3622 v 10 h 10 v -10 z m 1,1 h 8 v 8 h -8 z"
       class="ColorScheme-Text"
       fill="currentColor" />
    <path
       style="fill:#d7f1f8;fill-opacity:1"
       id="rect3014"
       d="m 304,579.3622 v 10 h 10 v -10 z m 1,1 h 8 v 8 h -8 z"
       class="ColorScheme-Text"
       fill="currentColor" />
  </g>
  <g
     id="16-16-window-pin">
    <path
       id="rect847"
       d="M 0,0 H 16 V 16 H 0 Z"
       fill="none" />
    <path
       style="fill:#d7f1f8;fill-opacity:1"
       id="path3"
       d="M 10.5,1.7929688 9.7929688,2.5 10,3.292969 6.6621094,6.6308594 C 5.8351625,6.218371 4.9241113,6.0024726 4,6 L 3.6464844,6.3535156 6.2929688,9 3,12.292969 V 13 H 3.7070312 L 7,9.7070312 9.6464844,12.353516 10,12 C 9.9975274,11.075889 9.781629,10.164838 9.3691406,9.3378906 L 12.707031,6 13.5,6.2070312 14.207031,5.5 Z"
       class="ColorScheme-Text"
       fill="currentColor" />
  </g>
  <g
     id="window-pin"
     transform="translate(-22,-6)">
    <path
       style="fill:#d7f1f8;fill-opacity:1"
       id="path1140"
       d="M 14.5,2.7929688 13.792969,3.5 l 0.5,1.5 -4.705078,4.7050781 C 8.6974945,9.2438844 7.7097777,9.002145 6.707031,9 H 6 L 5.646484,9.3535156 8.792969,12.5 3,18.292969 V 19 H 3.707031 L 9.5,13.207031 12.646484,16.353516 13,16 v -0.707031 c -0.0021,-1.002747 -0.243884,-1.990463 -0.705078,-2.88086 L 17,7.7070312 l 1.5,0.5 L 19.207031,7.5 Z"
       class="ColorScheme-Text"
       fill="currentColor"
       stroke-linecap="square"
       stroke-miterlimit="0" />
    <path
       id="rect838"
       d="M 0,0 H 22 V 22 H 0 Z"
       fill="none" />
  </g>
  <g
     id="16-16-window-unpin"
     transform="translate(16)">
    <path
       id="rect847-9"
       d="M 0,0 H 16 V 16 H 0 Z"
       fill="none" />
    <path
       style="fill:#d7f1f8;fill-opacity:1"
       id="path3-3"
       d="M 10.5,1.7929688 9.7929688,2.5 10,3.292969 6.6621094,6.6308594 C 5.8351625,6.218371 4.9241113,6.0024726 4,6 L 3.6464844,6.3535156 6.2929688,9 3,12.292969 V 13 H 3.7070312 L 7,9.7070312 9.6464844,12.353516 10,12 C 9.9975274,11.075889 9.781629,10.164838 9.3691406,9.3378906 L 12.707031,6 13.5,6.2070312 14.207031,5.5 Z"
       class="ColorScheme-ButtonFocus"
       fill="currentColor" />
  </g>
  <g
     id="window-unpin"
     transform="translate(32,-6)">
    <path
       style="fill:#d7f1f8;fill-opacity:1"
       id="path1140-0"
       d="M 14.5,2.7929688 13.792969,3.5 l 0.5,1.5 -4.705078,4.7050781 C 8.6974945,9.2438844 7.7097777,9.002145 6.707031,9 H 6 L 5.646484,9.3535156 8.792969,12.5 3,18.292969 V 19 H 3.707031 L 9.5,13.207031 12.646484,16.353516 13,16 v -0.707031 c -0.0021,-1.002747 -0.243884,-1.990463 -0.705078,-2.88086 L 17,7.7070312 l 1.5,0.5 L 19.207031,7.5 Z"
       class="ColorScheme-ButtonFocus"
       fill="currentColor"
       stroke-linecap="square"
       stroke-miterlimit="0" />
    <path
       id="rect838-6"
       d="M 0,0 H 22 V 22 H 0 Z"
       fill="none" />
  </g>
  <path
     style="fill:#d7f1f8;fill-opacity:1"
     id="8-8-window-pin"
     d="m5.292969-8-.292969.2929688.292969.7070312-2 2-1.5859378-1-.7070312.7070312 1.292969 1.2929688.5.5-2.792969 2.7929688v.7070312h.7070312l2.7929688-2.7929688.5.5 1.292969 1.2929688.707031-.7070312-1-1.5859376 2-2 .707031.2929688.292969-.2929688v-.4140624l-2.292969-2.2929688z"
     class="ColorScheme-Text"
     fill="currentColor"
     stroke-miterlimit="0" />
  <path
     style="fill:#d7f1f8;fill-opacity:1"
     id="8-8-window-unpin"
     d="m24.292969-8-.292969.2929688.292969.7070312-2 2-1.585938-1-.707031.7070312 1.292969 1.2929688.5.5-2.792969 2.7929688v.7070312h.707031l2.792969-2.7929688.5.5 1.292969 1.2929688.707031-.7070312-1-1.5859376 2-2 .707031.2929688.292969-.2929688v-.4140624l-2.292969-2.2929688z"
     class="ColorScheme-ButtonFocus"
     fill="currentColor"
     stroke-miterlimit="0" />
</svg>
