<?xml version="1.0" encoding="UTF-8" standalone="no"?>
<svg
   sodipodi:docname="configure.svg"
   height="100%"
   width="100%"
   inkscape:version="1.3.2 (091e20ef0f, 2023-11-25)"
   version="1.1"
   id="svg"
   viewBox="0 0 22 22"
   xmlns:inkscape="http://www.inkscape.org/namespaces/inkscape"
   xmlns:sodipodi="http://sodipodi.sourceforge.net/DTD/sodipodi-0.dtd"
   xmlns="http://www.w3.org/2000/svg"
   xmlns:svg="http://www.w3.org/2000/svg"
   xmlns:rdf="http://www.w3.org/1999/02/22-rdf-syntax-ns#"
   xmlns:cc="http://creativecommons.org/ns#"
   xmlns:dc="http://purl.org/dc/elements/1.1/"
   xmlns:osb="http://www.openswatchbook.org/uri/2009/osb">
  <defs
     id="defs81">
    <style
       type="text/css"
       id="current-color-scheme">
      .ColorScheme-Text {
        color:#7B7C7E;
      }
      .ColorScheme-Background{
        color:#EFF0F1;
      }
      .ColorScheme-Highlight{
        color:#3DAEE6;
      }
      .ColorScheme-ViewText {
        color:#7B7C7E;
      }
      .ColorScheme-ViewBackground{
        color:#FCFCFC;
      }
      .ColorScheme-ViewHover {
        color:#3DAEE6;
      }
      .ColorScheme-ViewFocus{
        color:#1E92FF;
      }
      .ColorScheme-ButtonText {
        color:#7B7C7E;
      }
      .ColorScheme-ButtonBackground{
        color:#EFF0F1;
      }
      .ColorScheme-ButtonHover {
        color:#3DAEE6;
      }
      .ColorScheme-ButtonFocus{
        color:#1E92FF;
      }
</style>
    <linearGradient
       id="linearGradient5606"
       osb:paint="solid">
      <stop
         id="stop5608"
         offset="0"
         style="stop-color:#000000;stop-opacity:1;" />
    </linearGradient>
  </defs>
  <metadata
     id="metadata34">
    <rdf:RDF>
      <cc:Work
         rdf:about="">
        <dc:format>image/svg+xml</dc:format>
        <dc:type
           rdf:resource="http://purl.org/dc/dcmitype/StillImage" />
      </cc:Work>
    </rdf:RDF>
  </metadata>
  <sodipodi:namedview
     inkscape:document-rotation="0"
     inkscape:showpageshadow="false"
     inkscape:snap-bbox="true"
     inkscape:guide-bbox="true"
     showguides="false"
     borderlayer="false"
     inkscape:current-layer="svg"
     inkscape:window-maximized="1"
     inkscape:window-y="0"
     inkscape:window-x="0"
     inkscape:cy="11.493468"
     inkscape:cx="11.171972"
     inkscape:zoom="24.8837"
     showgrid="false"
     id="namedview32"
     inkscape:window-height="994"
     inkscape:window-width="1920"
     inkscape:pageshadow="2"
     inkscape:pageopacity="0.10196078"
     guidetolerance="10"
     gridtolerance="10"
     objecttolerance="10"
     borderopacity="1"
     bordercolor="#666666"
     pagecolor="#ffffff"
     inkscape:pagecheckerboard="0"
     inkscape:deskcolor="#d1d1d1">
    <inkscape:grid
       snapvisiblegridlinesonly="true"
       enabled="true"
       visible="false"
       empspacing="4"
       id="grid3046"
       type="xygrid"
       originx="0"
       originy="0"
       spacingy="1"
       spacingx="1"
       units="px" />
  </sodipodi:namedview>
  <g
     transform="translate(-486.16354,15.513273)"
     style="display:inline"
     inkscape:label="status"
     id="layer9" />
  <g
     transform="translate(-245.16334,-601.48672)"
     style="display:inline"
     inkscape:label="places"
     id="layer1" />
  <g
     transform="translate(-486.16354,15.513273)"
     style="display:inline"
     inkscape:label="mimetypes"
     id="layer14" />
  <g
     transform="translate(-486.16354,15.513273)"
     style="display:inline"
     inkscape:label="emblems"
     id="layer15" />
  <g
     transform="translate(-486.16354,15.513273)"
     style="display:inline"
     inkscape:label="emotes"
     id="g71291" />
  <g
     transform="translate(-245.16334,-451.48672)"
     style="display:inline"
     inkscape:label="apps"
     id="g6058" />
  <g
     transform="translate(-486.16354,15.513273)"
     style="display:inline"
     inkscape:label="actions"
     id="layer12" />
  <g
     inkscape:label="#g4196"
     id="configure">
    <rect
       y="-6.2102054e-06"
       x="2.2031236e-08"
       height="22.000006"
       width="22"
       id="rect2985"
       style="opacity:0.001;fill:#000000;fill-opacity:1;stroke:none" />
    <g
       id="g4152"
       transform="translate(3,3)">
      <g
         id="g4154">
        <rect
           id="rect4156"
           style="opacity:1;fill:#d7f1f8;fill-opacity:1;stroke:none"
           rx="1"
           y="6"
           height="4"
           width="4"
           x="0" />
        <rect
           id="rect4158"
           style="opacity:1;fill:#d7f1f8;fill-opacity:1;stroke:none"
           width="4"
           height="4"
           x="12"
           y="6"
           rx="1" />
        <rect
           id="rect4160"
           style="opacity:1;fill:#d7f1f8;fill-opacity:1;stroke:none"
           rx="1"
           x="6"
           height="4"
           width="4"
           y="0" />
        <rect
           id="rect4162"
           style="opacity:1;fill:#d7f1f8;fill-opacity:1;stroke:none"
           width="4"
           height="4"
           x="6"
           y="12"
           rx="1" />
        <rect
           id="rect4164"
           style="opacity:1;fill:#d7f1f8;fill-opacity:1;stroke:none"
           transform="matrix(0.70710678,0.70710678,-0.70710678,0.70710678,0,0)"
           width="4"
           height="4"
           x="3.3139999"
           y="-2"
           rx="1" />
        <rect
           id="rect4166"
           style="opacity:1;fill:#d7f1f8;fill-opacity:1;stroke:none"
           transform="matrix(0.70710678,0.70710678,-0.70710678,0.70710678,0,0)"
           rx="1"
           y="-2"
           x="15.314"
           height="4"
           width="4" />
        <rect
           id="rect4168"
           style="opacity:1;fill:#d7f1f8;fill-opacity:1;stroke:none"
           transform="matrix(0.70710678,0.70710678,-0.70710678,0.70710678,0,0)"
           width="4"
           height="4"
           x="9.3140001"
           y="-8"
           rx="1" />
        <rect
           id="rect4170"
           style="opacity:1;fill:#d7f1f8;fill-opacity:1;stroke:none"
           transform="matrix(0.70710678,0.70710678,-0.70710678,0.70710678,0,0)"
           rx="1"
           y="4"
           x="9.3140001"
           height="4"
           width="4" />
        <path
           id="path4172"
           style="opacity:1;fill:#d7f1f8;fill-opacity:1;stroke:none"
           d="m 7.8768283,1.3768285 a 6.5,6.5 0 0 0 -6.5,6.5 6.5,6.5 0 0 0 6.5,6.4999995 6.5,6.5 0 0 0 6.5000007,-6.4999995 6.5,6.5 0 0 0 -6.5000007,-6.5 m 0,3.5 a 3,3 0 0 1 3.0000007,3 3,3 0 0 1 -3.0000007,2.9999995 3,3 0 0 1 -3,-2.9999995 3,3 0 0 1 3,-3"
           inkscape:connector-curvature="0" />
      </g>
      <path
         id="path4174"
         style="opacity:1;fill:#3daee9;fill-opacity:1;stroke:none"
         d="M 8,3 A 5,5 0 0 0 3,8 5,5 0 0 0 8,13 5,5 0 0 0 13,8 5,5 0 0 0 8,3 M 8,6 A 2,2 0 0 1 10,8 2,2 0 0 1 8,10 2,2 0 0 1 6,8 2,2 0 0 1 8,6"
         inkscape:connector-curvature="0" />
    </g>
  </g>
  <g
     inkscape:label="#g4169"
     id="16-16-configure">
    <rect
       style="opacity:0.001;fill:#000000;fill-opacity:1;stroke:none"
       id="rect4159"
       width="16"
       height="16.000004"
       x="22"
       y="5.9999952" />
    <g
       id="16-16-configure2"
       inkscape:label="#g4245">
      <rect
         id="rect4165"
         style="opacity:1;fill:#d7f1f8;fill-opacity:1;stroke:none"
         rx="0.875"
         y="12.25"
         height="3.5"
         width="3.5"
         x="23" />
      <rect
         id="rect4167"
         style="opacity:1;fill:#d7f1f8;fill-opacity:1;stroke:none"
         width="3.5"
         height="3.5"
         x="33.5"
         y="12.25"
         rx="0.875" />
      <rect
         id="rect4169"
         style="opacity:1;fill:#d7f1f8;fill-opacity:1;stroke:none"
         rx="0.875"
         x="28.25"
         height="3.5"
         width="3.5"
         y="7" />
      <rect
         id="rect4171"
         style="opacity:1;fill:#d7f1f8;fill-opacity:1;stroke:none"
         width="3.5"
         height="3.5"
         x="28.25"
         y="17.5"
         rx="0.875" />
      <rect
         id="rect4173"
         style="opacity:1;fill:#d7f1f8;fill-opacity:1;stroke:none"
         transform="matrix(0.70710678,0.70710678,-0.70710678,0.70710678,0,0)"
         width="3.5"
         height="3.5"
         x="24.112953"
         y="-13.063709"
         rx="0.875" />
      <rect
         id="rect4175"
         style="opacity:1;fill:#d7f1f8;fill-opacity:1;stroke:none"
         transform="matrix(0.70710678,0.70710678,-0.70710678,0.70710678,0,0)"
         rx="0.875"
         y="-13.063709"
         x="34.612953"
         height="3.5"
         width="3.5" />
      <rect
         id="rect4177"
         style="opacity:1;fill:#d7f1f8;fill-opacity:1;stroke:none"
         transform="matrix(0.70710678,0.70710678,-0.70710678,0.70710678,0,0)"
         width="3.5"
         height="3.5"
         x="29.362953"
         y="-18.313709"
         rx="0.875" />
      <rect
         id="rect4179"
         style="opacity:1;fill:#d7f1f8;fill-opacity:1;stroke:none"
         transform="matrix(0.70710678,0.70710678,-0.70710678,0.70710678,0,0)"
         rx="0.875"
         y="-7.8137093"
         x="29.362953"
         height="3.5"
         width="3.5" />
      <path
         id="path4181"
         style="opacity:1;fill:#d7f1f8;fill-opacity:1;stroke:none"
         d="M 30,8.3124998 A 5.6875,5.6875 0 0 0 24.3125,14 5.6875,5.6875 0 0 0 30,19.6875 5.6875,5.6875 0 0 0 35.6875,14 5.6875,5.6875 0 0 0 30,8.3124998 M 30,11.375 A 2.625,2.625 0 0 1 32.625,14 2.625,2.625 0 0 1 30,16.625 2.625,2.625 0 0 1 27.375,14 2.625,2.625 0 0 1 30,11.375"
         inkscape:connector-curvature="0" />
      <path
         id="path4242"
         d="M 30 10 A 4 4 0 0 0 26 14 A 4 4 0 0 0 30 18 A 4 4 0 0 0 34 14 A 4 4 0 0 0 30 10 z M 30 12 A 2 2 0 0 1 32 14 A 2 2 0 0 1 30 16 A 2 2 0 0 1 28 14 A 2 2 0 0 1 30 12 z "
         style="opacity:1;fill:#3daee9;fill-opacity:1;stroke:none" />
    </g>
  </g>
</svg>
