<?xml version="1.0" encoding="UTF-8" standalone="no"?>
<svg
   xmlns:dc="http://purl.org/dc/elements/1.1/"
   xmlns:cc="http://creativecommons.org/ns#"
   xmlns:rdf="http://www.w3.org/1999/02/22-rdf-syntax-ns#"
   xmlns:svg="http://www.w3.org/2000/svg"
   xmlns="http://www.w3.org/2000/svg"
   xmlns:sodipodi="http://sodipodi.sourceforge.net/DTD/sodipodi-0.dtd"
   xmlns:inkscape="http://www.inkscape.org/namespaces/inkscape"
   width="32"
   height="32"
   version="1.1"
   id="svg58"
   sodipodi:docname="disk.svg"
   inkscape:version="1.0.1 (3bc2e813f5, 2020-09-07)">
  <g
     id="disk-quota-critical"
     transform="translate(96)">
    <rect
       style="opacity:0.00100002"
       width="32"
       height="32"
       x="0"
       y="0"
       id="rect49-6" />
    <path
       style="fill:#d7f1f8;fill-opacity:1;stroke-width:1.33346"
       inkscape:connector-curvature="0"
       fill="#dedede"
       d="M 9.66666,4.567 C 8.18934,4.567 7,5.756335 7,7.233666 V 25.90034 C 7,27.377654 8.18934,28.567 9.66666,28.567 h 13.33335 c 1.47732,0 2.66666,-1.189346 2.66666,-2.66666 V 7.233666 C 25.66667,5.756335 24.47733,4.567 23.00001,4.567 Z m 0,2.666666 h 1.33335 V 9.900327 H 9.66666 Z m 2.66667,0 h 1.33334 v 2.666661 h -1.33334 z m 2.66666,0 h 1.33335 v 2.666661 h -1.33335 z m 2.66666,0 H 19 v 2.666661 h -1.33335 z m 2.6667,1.333339 h 1.33331 v 1.333322 h -1.33331 z m -4.00001,2.666668 a 6.6666673,6.6666673 0 0 1 6.66667,6.666673 6.6666673,6.6666673 0 0 1 -6.66667,6.666647 6.6666673,6.6666673 0 0 1 -6.66668,-6.666647 6.6666673,6.6666673 0 0 1 6.66668,-6.666673 z m 6.66667,13.33332 a 1.3333346,1.3333346 0 0 1 1.33332,1.333347 1.3333346,1.3333346 0 0 1 -1.33332,1.333314 1.3333346,1.3333346 0 0 1 -1.33335,-1.333314 1.3333346,1.3333346 0 0 1 1.33335,-1.333347 z"
       id="path77-7-7" />
    <path
       style="fill:#d40055;fill-opacity:1;stroke:#d7f1f8;stroke-width:1.33346;stroke-opacity:1"
       inkscape:connector-curvature="0"
       d="m 16.33334,11.333346 a 6.6666673,6.6666673 0 0 0 -6.66668,6.666673 6.6666673,6.6666673 0 0 0 6.66668,6.666647 6.6666673,6.6666673 0 0 0 6.66667,-6.666647 h -6.66667 z"
       id="path79-5-5" />
    <circle
       style="fill:#ff80b3;fill-opacity:1;stroke-width:1.33333"
       r="2.6666691"
       cy="18.000023"
       cx="16.333347"
       id="circle83-5-3" />
    <path
       style="fill:#d40055;stroke-width:1.33346"
       inkscape:connector-curvature="0"
       fill="#dc6e2e"
       d="m 26.99999,16.666673 v 6.666673 h 2.66666 v -6.666673 z m 0,7.999993 v 2.666661 h 2.66666 v -2.666661 z"
       id="path24-6-5" />
  </g>
  <metadata
     id="metadata64">
    <rdf:RDF>
      <cc:Work
         rdf:about="">
        <dc:format>image/svg+xml</dc:format>
        <dc:type
           rdf:resource="http://purl.org/dc/dcmitype/StillImage" />
      </cc:Work>
    </rdf:RDF>
  </metadata>
  <defs
     id="defs62" />
  <sodipodi:namedview
     pagecolor="#ffffff"
     bordercolor="#666666"
     borderopacity="1"
     objecttolerance="10"
     gridtolerance="10"
     guidetolerance="10"
     inkscape:pageopacity="0"
     inkscape:pageshadow="2"
     inkscape:window-width="1920"
     inkscape:window-height="1016"
     id="namedview60"
     showgrid="false"
     inkscape:zoom="6.9384853"
     inkscape:cx="74.987"
     inkscape:cy="22.454617"
     inkscape:window-x="0"
     inkscape:window-y="0"
     inkscape:window-maximized="1"
     inkscape:current-layer="svg58"
     inkscape:document-rotation="0"
     inkscape:lockguides="false">
    <inkscape:grid
       type="xygrid"
       id="grid913"
       originx="0"
       originy="0" />
  </sodipodi:namedview>
  <g
     id="disk-quota">
    <rect
       style="opacity:0.00100002"
       width="32"
       height="32"
       x="0"
       y="0"
       id="rect35" />
    <path
       style="fill:#daf2f8;fill-opacity:1;stroke-width:1.33342"
       inkscape:connector-curvature="0"
       d="M 9.26666,4.5 C 7.789342,4.5 6.6,5.6893342 6.6,7.166666 V 25.83334 C 6.6,27.310658 7.789342,28.5 9.26666,28.5 h 13.333342 c 1.477324,0 2.666672,-1.189342 2.666672,-2.66666 V 7.166666 C 25.266674,5.6893342 24.077326,4.5 22.600002,4.5 Z m 0,2.666666 h 1.333342 v 2.66666 H 9.26666 Z m 2.666666,0 h 1.333348 v 2.66666 h -1.333348 z m 2.666672,0 h 1.333342 v 2.66666 h -1.333342 z m 2.66666,0 H 18.6 v 2.66666 h -1.333342 z m 2.666684,1.333336 h 1.333318 v 1.333324 h -1.333318 z m -4.000002,2.666672 a 6.6666674,6.6666674 0 0 1 6.666662,6.666668 6.6666674,6.6666674 0 0 1 -6.666662,6.666656 6.6666674,6.6666674 0 0 1 -6.66668,-6.666656 6.6666674,6.6666674 0 0 1 6.66668,-6.666668 z m 6.666662,13.333324 a 1.3333342,1.3333342 0 0 1 1.333324,1.333342 1.3333342,1.3333342 0 0 1 -1.333324,1.333318 1.3333342,1.3333342 0 0 1 -1.333342,-1.333318 1.3333342,1.3333342 0 0 1 1.333342,-1.333342 z"
       id="path15" />
    <path
       style="fill:#0085c7;fill-opacity:1;fill-rule:evenodd;stroke:#d7f1f8;stroke-width:1.33342;stroke-opacity:1"
       inkscape:connector-curvature="0"
       d="m 15.93334,11.166674 a 6.6666674,6.6666674 0 0 0 -6.66668,6.666668 6.6666674,6.6666674 0 0 0 6.66668,6.666656 6.6666674,6.6666674 0 0 0 6.666662,-6.666656 H 15.93334 Z"
       id="path17" />
    <circle
       style="fill:#66ccff;fill-opacity:1;stroke-width:1.33333"
       r="2.6666684"
       cy="17.833344"
       cx="15.933351"
       id="circle21" />
  </g>
  <g
     id="disk-quota-low">
    <rect
       style="opacity:0.00100002"
       width="32"
       height="32"
       x="32"
       y="0"
       id="rect40" />
    <path
       style="fill:#d7f1f8;fill-opacity:1;stroke-width:1.33334"
       inkscape:connector-curvature="0"
       fill="#dedede"
       d="M 41.26666,4.5 C 39.789331,4.5 38.6,5.6893334 38.6,7.166666 V 25.83334 C 38.6,27.310666 39.789331,28.5 41.26666,28.5 H 54.6 c 1.477333,0 2.666667,-1.189334 2.666667,-2.66666 V 7.166666 C 57.266667,5.6893334 56.077333,4.5 54.6,4.5 Z m 0,2.666666 H 42.6 v 2.666667 h -1.33334 z m 2.666673,0 h 1.333334 v 2.666667 h -1.333334 z m 2.666667,0 h 1.33334 V 9.833333 H 46.6 Z m 2.666666,0 H 50.6 V 9.833333 H 49.266666 Z M 51.933334,8.5 H 53.26666 V 9.833333 H 51.933334 Z M 47.93334,11.166667 A 6.6666667,6.6666667 0 0 1 54.6,17.833334 6.6666667,6.6666667 0 0 1 47.93334,24.5 6.6666667,6.6666667 0 0 1 41.26666,17.833334 6.6666667,6.6666667 0 0 1 47.93334,11.166667 Z M 54.6,24.5 A 1.3333334,1.3333334 0 0 1 55.933333,25.83334 1.3333334,1.3333334 0 0 1 54.6,27.166666 1.3333334,1.3333334 0 0 1 53.26666,25.83334 1.3333334,1.3333334 0 0 1 54.6,24.5 Z"
       id="path53-3" />
    <path
       style="fill:#7e68cb;fill-opacity:1;stroke:#d7f1f8;stroke-width:1.33334;stroke-opacity:1"
       inkscape:connector-curvature="0"
       d="M 47.93334,11.166667 A 6.6666667,6.6666667 0 0 0 41.26666,17.833334 6.6666667,6.6666667 0 0 0 47.93334,24.5 6.6666667,6.6666667 0 0 0 54.6,17.833334 h -6.66666 z"
       id="path55-6" />
    <circle
       style="fill:#beb4e4;fill-opacity:1;stroke-width:1.33334"
       r="2.666666"
       cy="17.833311"
       cx="47.933334"
       id="circle59" />
  </g>
  <g
     id="disk-quota-high">
    <rect
       style="opacity:0.00100002"
       width="32"
       height="32"
       x="64"
       y="-3.0050278e-09"
       id="rect49" />
    <path
       style="fill:#d7f1f8;fill-opacity:1;stroke-width:1.33342"
       inkscape:connector-curvature="0"
       fill="#dedede"
       d="M 73.36666,4.5 C 71.889339,4.5 70.7,5.6893342 70.7,7.166666 V 25.83334 c 0,1.477318 1.189339,2.66666 2.66666,2.66666 h 13.333342 c 1.477324,0 2.666672,-1.189342 2.666672,-2.66666 V 7.166666 C 89.366674,5.6893342 88.177326,4.5 86.700002,4.5 Z m 0,2.666666 h 1.333342 v 2.66666 H 73.36666 Z m 2.666666,0 h 1.333348 v 2.66666 h -1.333348 z m 2.666672,0 h 1.333342 v 2.66666 h -1.333342 z m 2.66666,0 H 82.7 v 2.66666 h -1.333342 z m 2.666684,1.333336 h 1.333318 v 1.333324 h -1.333318 z m -4.000002,2.666672 a 6.6666674,6.6666674 0 0 1 6.666662,6.666668 6.6666674,6.6666674 0 0 1 -6.666662,6.666656 6.6666674,6.6666674 0 0 1 -6.66668,-6.666656 6.6666674,6.6666674 0 0 1 6.66668,-6.666668 z m 6.666662,13.333324 a 1.3333342,1.3333342 0 0 1 1.333324,1.333342 1.3333342,1.3333342 0 0 1 -1.333324,1.333318 1.3333342,1.3333342 0 0 1 -1.333342,-1.333318 1.3333342,1.3333342 0 0 1 1.333342,-1.333342 z"
       id="path65" />
    <path
       style="fill:#ff6600;stroke:#d7f1f8;stroke-width:1.33342;stroke-opacity:1"
       inkscape:connector-curvature="0"
       d="m 80.03334,11.166674 a 6.6666674,6.6666674 0 0 0 -6.66668,6.666668 6.6666674,6.6666674 0 0 0 6.66668,6.666656 6.6666674,6.6666674 0 0 0 6.666662,-6.666656 H 80.03334 Z"
       id="path67" />
    <circle
       style="fill:#ffb380;fill-opacity:1;stroke-width:1.33333"
       r="2.6666684"
       cy="17.833344"
       cx="80.03334"
       id="circle71" />
  </g>
</svg>
