<?xml version="1.0" encoding="UTF-8" standalone="no"?>
<svg
   xmlns:dc="http://purl.org/dc/elements/1.1/"
   xmlns:cc="http://creativecommons.org/ns#"
   xmlns:rdf="http://www.w3.org/1999/02/22-rdf-syntax-ns#"
   xmlns:svg="http://www.w3.org/2000/svg"
   xmlns="http://www.w3.org/2000/svg"
   xmlns:sodipodi="http://sodipodi.sourceforge.net/DTD/sodipodi-0.dtd"
   xmlns:inkscape="http://www.inkscape.org/namespaces/inkscape"
   width="32"
   height="32"
   version="1.1"
   id="svg12"
   sodipodi:docname="kteatime.svg"
   inkscape:version="1.0.2 (e86c870879, 2021-01-15)">
  <metadata
     id="metadata18">
    <rdf:RDF>
      <cc:Work
         rdf:about="">
        <dc:format>image/svg+xml</dc:format>
        <dc:type
           rdf:resource="http://purl.org/dc/dcmitype/StillImage" />
      </cc:Work>
    </rdf:RDF>
  </metadata>
  <defs
     id="defs16" />
  <sodipodi:namedview
     pagecolor="#ffffff"
     bordercolor="#666666"
     borderopacity="1"
     objecttolerance="10"
     gridtolerance="10"
     guidetolerance="10"
     inkscape:pageopacity="0"
     inkscape:pageshadow="2"
     inkscape:window-width="1920"
     inkscape:window-height="1007"
     id="namedview14"
     showgrid="false"
     inkscape:zoom="4.90625"
     inkscape:cx="17.968828"
     inkscape:cy="10.435892"
     inkscape:window-x="0"
     inkscape:window-y="0"
     inkscape:window-maximized="1"
     inkscape:current-layer="svg12"
     inkscape:document-rotation="0"
     showguides="false"
     inkscape:lockguides="false" />
  <g
     id="kteatime">
    <rect
       style="opacity:0.00100002"
       width="32"
       height="32"
       x="0"
       y="0"
       id="rect7" />
    <path
       d="M 30.26692,12.825878 C 29.968802,12.284845 29.295273,11.644446 27.810201,11.644446 H 26.452104 A 31.325572,31.325572 0 0 0 26.667413,8.1332643 0.55367326,0.55367326 0 0 0 26.115338,7.5811912 h -8.632477 l -0.0045,-0.00119 -0.0045,0.00119 H 2.067073 A 0.55367326,0.55367326 0 0 0 1.515,8.1332643 C 1.515,13.758878 3.596311,25.38 10.01139,25.38 h 8.159631 c 2.776922,0 4.736779,-2.164121 6.072792,-5.084584 1.67278,-0.09937 3.787216,-0.668007 5.034898,-2.677554 1.258727,-2.037145 1.60101,-3.693363 0.988209,-4.791984 z M 15.962728,24.275857 H 10.01139 c -5.333017,0 -7.254228,-10.323752 -7.381205,-15.5905211 h 14.296242 v 5.9615511 h -0.591655 a 1.1041446,1.1041446 0 0 0 -1.104145,1.104145 v 3.762814 a 1.1041446,1.1041446 0 0 0 1.104145,1.104144 h 2.287178 a 1.1041446,1.1041446 0 0 0 1.104146,-1.104144 V 15.751032 A 1.1041446,1.1041446 0 0 0 18.62195,14.646887 H 18.030573 V 8.6853359 h 5.318828 C 23.222481,13.952105 21.301268,24.275857 15.962675,24.275857 Z m 12.377461,-7.237671 a 4.7815528,4.7815528 0 0 1 -3.616073,2.103395 30.41791,30.41791 0 0 0 1.584447,-6.392995 h 1.501638 a 1.6362868,1.6362868 0 0 1 1.490596,0.618325 c 0.397434,0.70113 0.04411,2.042665 -0.960608,3.671275 z"
       id="path2"
       style="fill:#d7f1f8;fill-opacity:1;stroke-width:0.552073" />
  </g>
  <g
     id="22-22-kteatime">
    <rect
       style="opacity:0.00100002"
       width="22"
       height="22"
       x="32"
       y="10"
       id="rect2" />
    <path
       d="m 52.736604,18.68767 c -0.200973,-0.364731 -0.655023,-0.796444 -1.656161,-0.796444 h -0.915545 a 21.117698,21.117698 0 0 0 0.145149,-2.367017 0.37325112,0.37325112 0 0 0 -0.372173,-0.372171 H 44.11841 l -0.0033,-0.0012 -0.0033,0.0012 H 33.725964 a 0.37325112,0.37325112 0 0 0 -0.372169,0.372171 c 0,3.792431 1.403086,11.626647 5.727723,11.626647 h 5.500739 c 1.872024,0 3.193235,-1.458911 4.09389,-3.427704 1.127682,-0.06699 2.553099,-0.450324 3.394206,-1.805035 0.848553,-1.37331 1.079298,-2.489826 0.666187,-3.230447 z m -9.642972,7.718841 H 39.08162 c -3.59518,0 -4.890337,-6.959612 -4.975935,-10.51013 h 9.637611 v 4.018897 h -0.398855 a 0.74434358,0.74434358 0 0 0 -0.744343,0.744344 v 2.53665 a 0.74434358,0.74434358 0 0 0 0.744343,0.744342 h 1.54187 a 0.74434358,0.74434358 0 0 0 0.744342,-0.744342 v -2.53665 A 0.74434358,0.74434358 0 0 0 44.886311,19.915278 H 44.48764 v -4.018897 h 3.585616 c -0.08556,3.550518 -1.380722,10.51013 -4.979659,10.51013 z m 8.344094,-4.879174 A 3.2234173,3.2234173 0 0 1 49,22.945312 20.505811,20.505811 0 0 0 50.068134,18.635565 h 1.012309 a 1.1030799,1.1030799 0 0 1 1.004863,0.416835 c 0.267924,0.472655 0.02974,1.377036 -0.64758,2.474937 z"
       id="path2-6"
       style="fill:#d7f1f8;fill-opacity:1;stroke-width:0.37217" />
  </g>
</svg>
