<?xml version="1.0" encoding="UTF-8" standalone="no"?>
<svg
   width="32"
   height="32"
   version="1.1"
   id="svg12"
   sodipodi:docname="plasmavault_error.svg"
   inkscape:version="1.2 (dc2aedaf03, 2022-05-15)"
   xmlns:inkscape="http://www.inkscape.org/namespaces/inkscape"
   xmlns:sodipodi="http://sodipodi.sourceforge.net/DTD/sodipodi-0.dtd"
   xmlns="http://www.w3.org/2000/svg"
   xmlns:svg="http://www.w3.org/2000/svg"
   xmlns:rdf="http://www.w3.org/1999/02/22-rdf-syntax-ns#"
   xmlns:cc="http://creativecommons.org/ns#"
   xmlns:dc="http://purl.org/dc/elements/1.1/">
  <g
     id="plasmavault_error">
    <rect
       style="opacity:0.00100002;fill:#ff557f;fill-opacity:1"
       width="32"
       height="32"
       x="0"
       y="0"
       id="rect7" />
    <path
       d="M 18.631713,16.661997 H 18.38471 l -0.0013,-1.230993 c -0.0013,-1.341 -1.092002,-2.432006 -2.433002,-2.431003 -1.341,0.0013 -2.431999,1.092004 -2.431,2.433004 l 0.0025,1.230999 h -0.08791 c -0.460992,0.0013 -0.835,0.374991 -0.833996,0.835997 v 3.665004 C 12.600002,21.626007 12.974998,22 13.435998,22 l 5.198009,-0.0034 c 0.460994,0 0.834998,-0.373998 0.833997,-0.834999 v -3.665974 c 0,-0.460998 -0.374997,-0.833997 -0.835999,-0.833997 z m -4.213998,0.0025 -0.0025,-1.230997 c 0,-0.847001 0.687998,-1.536002 1.534999,-1.537003 0.846999,0 1.535998,0.689 1.535998,1.535 l 0.0025,1.231003 z"
       id="path2-67-3"
       style="fill:#ff557f;fill-opacity:1;stroke-width:0.100003" />
    <path
       style="color:#000000;font-style:normal;font-variant:normal;font-weight:normal;font-stretch:normal;font-size:medium;line-height:normal;font-family:Sans;-inkscape-font-specification:Sans;text-indent:0;text-align:start;text-decoration:none;text-decoration-line:none;letter-spacing:normal;word-spacing:normal;text-transform:none;writing-mode:lr-tb;direction:ltr;baseline-shift:baseline;text-anchor:start;display:inline;overflow:visible;visibility:visible;fill:#ff557f;fill-opacity:1;fill-rule:nonzero;stroke:none;stroke-width:1.11609;marker:none;enable-background:accumulate"
       d="M 6.0607,6.0000768 C 4.949481,6.0000768 4,6.8171948 4,7.9018508 V 24.105997 c 0,0.894 0.9,1.894 1.9,1.894 v 0 l 19.354056,-6.1e-5 c 0.457294,0.0081 0.444288,-0.993112 1.08e-4,-0.999939 H 6.3 c -1,0 -1.3,-0.4 -1.3,-1.4 v 0 L 4.99919,7.9017938 c 0,-0.05728 0.01799,-0.901797 1.011792,-0.901797 h 6.704725 l 3.197185,2.8089 c 0.09661,0.0894 0.220301,0.188245 0.349122,0.1911 h 9.296645 c 0.474023,-0.0028 0.459043,-0.9922 -0.01499,-1 h -9.085814 l -3.389087,-2.866072 c -0.09781,-0.08616 -0.22138,-0.133565 -0.349124,-0.133928 z m 10.928766,0.99992 c -0.432584,-0.0012 -0.44426,0.993488 0,1 h 8.188057 0.804651 c 0.999189,0 0.973732,1.046931 0.973732,1.046931 l 0.02546,16.3815862 c 0.0025,0.531169 0.997373,0.548654 0.999192,0.01828 l 0.01944,-16.4908942 c 0.0013,-1.083267 -0.643799,-1.955903 -2.01783,-1.955903 h -0.999187 -7.993518 c -0.01703,-8.57e-4 0,0 0,0 z"
       id="path2-3-3-53-6"
       sodipodi:nodetypes="sssccccccccsccccccccscccccccsccccc" />
  </g>
  <metadata
     id="metadata18">
    <rdf:RDF>
      <cc:Work
         rdf:about="">
        <dc:format>image/svg+xml</dc:format>
        <dc:type
           rdf:resource="http://purl.org/dc/dcmitype/StillImage" />
      </cc:Work>
    </rdf:RDF>
  </metadata>
  <defs
     id="defs16" />
  <sodipodi:namedview
     pagecolor="#ffffff"
     bordercolor="#666666"
     borderopacity="1"
     objecttolerance="10"
     gridtolerance="10"
     guidetolerance="10"
     inkscape:pageopacity="0"
     inkscape:pageshadow="2"
     inkscape:window-width="1920"
     inkscape:window-height="1007"
     id="namedview14"
     showgrid="false"
     inkscape:zoom="9.8125"
     inkscape:cx="30.318471"
     inkscape:cy="17.936306"
     inkscape:window-x="0"
     inkscape:window-y="0"
     inkscape:window-maximized="1"
     inkscape:current-layer="svg12"
     inkscape:document-rotation="0"
     inkscape:lockguides="false"
     inkscape:pagecheckerboard="0"
     inkscape:showpageshadow="2"
     inkscape:deskcolor="#d1d1d1">
    <inkscape:grid
       type="xygrid"
       id="grid868"
       originx="0"
       originy="0" />
  </sodipodi:namedview>
  <g
     id="22-22-plasmavault_error"
     transform="translate(32,10)">
    <rect
       style="opacity:0.00100002;fill:#ff557f;fill-opacity:1"
       width="22"
       height="22"
       x="0"
       y="0"
       id="rect2" />
    <path
       d="m 12.821386,11.441333 h -0.164665 l -9.35e-4,-0.820664 C 12.654997,9.72667 11.927845,8.999335 11.033845,9 10.139844,9.000822 9.4125114,9.728003 9.4131784,10.622003 l 0.0014,0.820668 h -0.05858 c -0.30733,6.21e-4 -0.556663,0.249995 -0.555996,0.55733 v 2.443334 C 8.8000024,14.750671 9.0500014,15 9.3573354,15 l 3.4653366,-0.002 c 0.307327,0 0.556662,-0.249335 0.555997,-0.556669 v -2.443972 c 0,-0.307332 -0.249997,-0.555997 -0.557333,-0.555997 z m -2.809333,0.0015 -0.0014,-0.820665 c 0,-0.564666 0.458667,-1.023999 1.023331,-1.024668 0.564672,0 1.023999,0.459335 1.023999,1.023334 l 0.0015,0.820648 z"
       id="path2-7"
       style="fill:#ff557f;fill-opacity:1;stroke-width:0.0666646" />
    <path
       style="color:#000000;font-style:normal;font-variant:normal;font-weight:normal;font-stretch:normal;font-size:medium;line-height:normal;font-family:Sans;-inkscape-font-specification:Sans;text-indent:0;text-align:start;text-decoration:none;text-decoration-line:none;letter-spacing:normal;word-spacing:normal;text-transform:none;writing-mode:lr-tb;direction:ltr;baseline-shift:baseline;text-anchor:start;display:inline;overflow:visible;visibility:visible;fill:#ff557f;fill-opacity:1;fill-rule:nonzero;stroke:none;stroke-width:0.808683;marker:none;enable-background:accumulate"
       d="m 3.3460014,4.000056 c -0.833413,9e-6 -1.346,0.671685 -1.346,1.430944 v 9.569001 1.699996 c 0,0.604929 0.53435,1.300005 1.246,1.300003 l 14.6945026,-4.9e-5 C 18.28348,18.006451 18.273717,17.004782 17.940588,17 H 4.2500034 c -1.250002,-3e-6 -1.250002,0 -1.250002,-1.085105 V 14.921987 5.985816 c 0,-0.985819 0,-0.985816 1.05,-0.992908 h 4.486766 L 10.709751,6.66623 C 10.782171,6.72881 11.099875,6.998002 11.1965,7 h 6.972455 C 18.524469,6.998 18.513234,6.00546 18.157175,6 H 11.342878 L 8.8015654,4.09375 C 8.7282054,4.03344 8.6355274,4.00025 8.5397264,4 Z M 11.742083,4 c -0.319043,0 -0.352624,1 0,1 h 4.882932 l 1.374986,-3e-6 c 1,0 1,0 1,1.000003 v 11.599954 c 0.0015,0.371835 0.984074,0.384063 0.985456,0.01282 L 19.999997,5.4 C 20.0009,4.641695 19.484492,4 18.586998,4 h -0.849801 -4.737199 z"
       id="path2-3-3-5"
       sodipodi:nodetypes="ssccscccccccccccccccscccccccscccc" />
  </g>
</svg>
