<?xml version="1.0" encoding="UTF-8" standalone="no"?>
<svg
   id="svg12"
   width="32"
   height="32"
   version="1.1"
   sodipodi:docname="start.svg"
   inkscape:version="1.2.1 (9c6d41e410, 2022-07-14)"
   xmlns:inkscape="http://www.inkscape.org/namespaces/inkscape"
   xmlns:sodipodi="http://sodipodi.sourceforge.net/DTD/sodipodi-0.dtd"
   xmlns="http://www.w3.org/2000/svg"
   xmlns:svg="http://www.w3.org/2000/svg"
   xmlns:rdf="http://www.w3.org/1999/02/22-rdf-syntax-ns#"
   xmlns:cc="http://creativecommons.org/ns#"
   xmlns:dc="http://purl.org/dc/elements/1.1/">
  <style
     type="text/css"
     id="current-color-scheme"></style>
  <metadata
     id="metadata19">
    <rdf:RDF>
      <cc:Work
         rdf:about="">
        <dc:format>image/svg+xml</dc:format>
        <dc:type
           rdf:resource="http://purl.org/dc/dcmitype/StillImage" />
      </cc:Work>
    </rdf:RDF>
  </metadata>
  <defs
     id="defs17" />
  <sodipodi:namedview
     pagecolor="#ffffff"
     bordercolor="#666666"
     borderopacity="1"
     objecttolerance="10"
     gridtolerance="10"
     guidetolerance="10"
     inkscape:pageopacity="0"
     inkscape:pageshadow="2"
     inkscape:window-width="1920"
     inkscape:window-height="1002"
     id="namedview15"
     showgrid="false"
     inkscape:zoom="14.272727"
     inkscape:cx="-1.8566879"
     inkscape:cy="13.697452"
     inkscape:window-x="0"
     inkscape:window-y="0"
     inkscape:window-maximized="1"
     inkscape:current-layer="svg12"
     inkscape:document-rotation="0"
     inkscape:showpageshadow="2"
     inkscape:pagecheckerboard="0"
     inkscape:deskcolor="#d1d1d1"
     inkscape:lockguides="true"
     showguides="false">
    <inkscape:grid
       type="xygrid"
       id="grid958"
       originx="0"
       originy="0" />
  </sodipodi:namedview>
  <g
     id="start-here-kde">
    <rect
       id="rect7"
       style="opacity:0.00100002"
       width="32"
       height="32"
       x="0"
       y="0" />
    <path
       d="m 28.976156,8.871505 c -0.07133,1.433361 -0.240723,2.849033 -0.665683,4.211631 -0.26151,0.849397 -0.475482,1.720026 -0.846953,2.516347 -0.686475,1.46168 -1.566116,2.73225 -2.710245,3.716137 -1.087665,0.934352 -2.285281,1.589092 -3.592864,1.946555 0.05646,-0.583961 0.07132,-1.178552 0.03567,-1.773123 1.025255,-0.307916 1.925698,-0.920192 2.751854,-1.681117 0.885583,-0.821084 1.583942,-1.85453 2.151555,-3.011837 0.570573,-1.157317 0.947988,-2.406655 1.212482,-3.712605 0.19316,-0.96266 0.222881,-1.939472 0.210988,-2.916293 l 0.0089,-0.852938 c -0.05051,0.141568 -0.34471,0.488414 -0.386317,0.534414 -0.713219,0.78216 -1.551256,1.320119 -2.44873,1.734192 -0.826152,0.3822348 -1.684989,0.640595 -2.537886,0.930815 -1.0847,0.364541 -2.205054,0.647672 -3.215454,1.238717 -0.124813,0.07432 -0.240708,0.127406 -0.344723,0.162799 -0.353643,-0.4778 -0.745911,-0.906031 -1.16493,-1.298886 l -0.01486,-0.01415 c 0.986634,-0.566272 2.029726,-0.948506 3.06092,-1.355507 1.426451,-0.562733 2.864785,-1.075912 4.231795,-1.850992 1.230306,-0.700757 2.353632,-1.5537 3.328378,-2.689776 0.154525,-0.180504 0.344721,-0.399922 0.505197,-0.68306 0.175334,0.583964 0.255572,1.196239 0.323918,1.723578 0.130767,1.036975 0.157508,2.081042 0.106992,3.125099 z m -9.251107,10.083127 c -0.08618,-0.835248 -0.225856,-1.656343 -0.487365,-2.452653 -0.282314,-0.860022 -0.671621,-1.624483 -1.093606,-2.392488 -0.02081,-0.03894 -0.04458,-0.07787 -0.06538,-0.113253 -0.466572,-0.806931 -1.034186,-1.475843 -1.670141,-2.070419 -0.841,-0.789243 -1.780082,-1.351973 -2.760769,-1.815599 C 13.273349,9.9332588 12.892962,9.773991 12.512577,9.618272 L 9.6269968,8.499883 C 8.8365048,8.177828 8.0549318,7.827448 7.2941618,7.395664 6.0638498,6.694908 4.9405238,5.841964 3.9657858,4.705888 3.8112538,4.525385 3.6210608,4.291802 3.4605858,4.008663 c -0.175334,0.583964 -0.255572,1.210404 -0.323923,1.741282 -0.1367,1.036981 -0.163447,2.084579 -0.112926,3.128635 0.07132,1.433364 0.240713,2.849044 0.665674,4.211631 0.261516,0.849398 0.475484,1.720031 0.846954,2.516364 0.686479,1.461672 1.56612,2.732233 2.710248,3.716129 1.081718,0.930803 2.270428,1.582008 3.5690892,1.94301 -0.06835,-0.601659 -0.08916,-1.196239 -0.06241,-1.783749 C 9.7488308,19.170517 8.8632458,18.565317 8.0549278,17.815011 7.1693448,16.993919 6.4709778,15.96048 5.9033708,14.803162 5.3327918,13.645854 4.9553748,12.396522 4.6908938,11.09057 4.4917828,10.099595 4.4680088,9.098008 4.4798938,8.092878 V 7.399201 l 0.34473,0.424705 c 0.243685,0.272525 0.505196,0.516719 0.778602,0.732604 0.0416,0.03186 1.340264,0.99452 2.793459,1.479381 0.34769,0.113255 0.820204,0.272524 1.4472496,0.484868 0.1574926,0.05309 0.3179766,0.106167 0.4784496,0.155724 0.546803,0.180496 1.096584,0.368077 1.640417,0.583967 0.19613,0.07786 0.389292,0.15926 0.582465,0.24066 l 0.0089,0.0035 c 0.08619,0.03893 0.169394,0.07432 0.252599,0.113254 l 0.163445,0.08847 0.460622,0.226516 0.01189,0.0036 0.03566,0.01769 h 0.003 c 1.084696,0.587497 2.068348,1.35196 2.826146,2.480974 0.205055,0.304361 0.392276,0.619348 0.564641,0.941423 0.641894,1.217475 1.031198,2.565899 1.135211,4.027577 0.104011,1.461681 -0.04161,2.905666 -0.523036,4.278886 -0.303111,0.863522 -0.719164,1.642167 -1.218418,2.357089 -0.199107,0.286695 -0.306091,0.276055 -0.528974,0.01415 -0.04755,-0.05662 -0.08915,-0.113243 -0.127783,-0.173431 -0.561668,-0.803401 -0.968798,-1.776655 -0.968798,-1.776655 -0.439824,-0.987433 -0.719167,-2.049184 -0.817238,-3.178191 -0.178306,-2.059798 0.225854,-3.963881 1.322439,-5.613144 -0.374447,-0.516722 -0.799407,-0.95558 -1.26003,-1.334263 -0.576522,0.909562 -0.989594,1.925311 -1.274886,3.001223 -0.05349,0.201737 -0.101039,0.403477 -0.142644,0.605202 -0.267461,1.277638 -0.326898,2.580065 -0.157508,3.907252 0.03566,0.286677 0.08024,0.569813 0.133732,0.849403 0.448736,2.463289 1.453191,4.569092 3.052002,6.303278 0.374442,0.407005 0.549776,0.456526 0.817234,0.187553 0.445767,-0.445931 0.852896,-0.941407 1.230312,-1.468713 0.615154,-0.863616 1.081718,-1.843909 1.441305,-2.880918 0.04458,-0.123887 0.08618,-0.251282 0.124815,-0.375142 0.514112,-1.599714 0.781576,-3.248972 0.638931,-4.969013 -0.01189,-0.05663 -0.01783,-0.120332 -0.02378,-0.184039 z M 13,10 Z m 0,0 z"
       id="path8"
       style="fill:#3daee9;fill-opacity:1;stroke-width:0.0324308"
       inkscape:connector-curvature="0"
       sodipodi:nodetypes="sccccccccccccccccccccccssscccccccccccccccccccccccccccsccccccccccsccccccccscccccccccsscccccccccc" />
    <path
       id="path4149-8"
       d="m 16,2 c -1.656854,0 -3,1.3431458 -3,3 0,1.6568542 1.343146,3 3,3 1.656854,0 3,-1.3431458 3,-3 0,-1.6568542 -1.343146,-3 -3,-3 z m 0,5 z"
       opacity="1"
       fill-opacity="1"
       stroke="none"
       style="fill:#3daee9;fill-opacity:1;stroke-width:0.75"
       sodipodi:nodetypes="sssssccccc" />
  </g>
  <g
     id="22-22-start-here-kde"
     transform="translate(-22,10)">
    <rect
       id="rect7-6"
       style="opacity:0.00100002;stroke-width:0.6875"
       width="22"
       height="22"
       x="0"
       y="0" />
    <path
       d="m 19.983109,6.064791 c -0.04941,0.99231 -0.16665,1.972371 -0.460848,2.915687 -0.18104,0.588027 -0.32917,1.190755 -0.586336,1.742045 -0.475245,1.01191 -1.084208,1.891514 -1.876278,2.57265 -0.752987,0.646846 -1.582082,1.100117 -2.487314,1.347588 0.03907,-0.404276 0.04939,-0.815905 0.02467,-1.227522 0.709775,-0.213167 1.333147,-0.637041 1.905087,-1.163822 0.613081,-0.56843 1.09655,-1.283879 1.489505,-2.085071 0.395007,-0.801204 0.656284,-1.666111 0.839392,-2.570208 0.133723,-0.666444 0.154299,-1.342682 0.146064,-2.018927 l 0.0065,-0.590479 c -0.03499,0.09801 -0.238645,0.338121 -0.267448,0.369966 -0.493753,0.541485 -1.073917,0.913908 -1.695232,1.200566 -0.571944,0.264621 -1.166509,0.443482 -1.756959,0.644396 -0.750931,0.252371 -1.52654,0.44838 -2.226032,0.857557 -0.08641,0.05144 -0.166645,0.0882 -0.238654,0.112705 -0.24482,-0.330775 -0.516387,-0.627237 -0.806471,-0.899208 l -0.01026,-0.0097 c 0.683038,-0.392027 1.405162,-0.656645 2.119051,-0.938405 0.98752,-0.389578 1.983266,-0.744845 2.929635,-1.281429 0.851732,-0.485128 1.629402,-1.075616 2.304213,-1.862111 0.106978,-0.124963 0.238647,-0.276861 0.349743,-0.472877 0.121381,0.404273 0.176929,0.828147 0.224246,1.193219 0.09053,0.717893 0.10904,1.440688 0.07406,2.163481 z m -6.404466,6.98047 C 13.518973,12.467029 13.422285,11.898593 13.241245,11.347312 13.0458,10.751926 12.776288,10.222696 12.48415,9.691011 12.46974,9.664071 12.45328,9.637141 12.43886,9.612601 12.115859,9.05397 11.722903,8.590884 11.282636,8.179265 10.700416,7.632882 10.050298,7.243307 9.3713765,6.92234 9.1121545,6.799835 8.8488165,6.689572 8.5854785,6.58177 L 6.5878205,5.80752 C 6.0405645,5.584561 5.4994855,5.341996 4.9728125,5.043077 4.1210765,4.557949 3.3434065,3.967457 2.6686025,3.180965 2.5616275,3.056003 2.4299585,2.894298 2.3188625,2.698285 c -0.12138,0.404271 -0.176933,0.83795 -0.224252,1.205473 -0.09463,0.717893 -0.113154,1.443139 -0.07818,2.165928 0.04937,0.992305 0.166649,1.97237 0.460839,2.915681 0.181048,0.588029 0.329175,1.190761 0.586342,1.742057 0.475245,1.011906 1.084209,1.891504 1.876282,2.572646 0.748867,0.644387 1.571803,1.095213 2.470853,1.34513 -0.04733,-0.416522 -0.06175,-0.828143 -0.04321,-1.234872 -0.695382,-0.215616 -1.308465,-0.634588 -1.86806,-1.154021 -0.613081,-0.568436 -1.096553,-1.28388 -1.489503,-2.08508 C 3.6149675,9.370033 3.3536815,8.50513 3.1705845,7.60103 3.0327405,6.914985 3.0162855,6.221594 3.0245095,5.525751 V 5.045523 l 0.238655,0.294024 c 0.168702,0.188661 0.349745,0.357718 0.539022,0.507173 0.0288,0.02207 0.927854,0.688499 1.93389,1.024164 0.240698,0.07841 0.567816,0.188667 1.001915,0.335671 0.109034,0.03679 0.220133,0.0735 0.331227,0.107805 0.37855,0.124956 0.759157,0.254819 1.13565,0.404275 0.135779,0.05386 0.269504,0.11026 0.403237,0.16661 l 0.0065,0.0026 c 0.05968,0.02693 0.117267,0.05143 0.174869,0.07841 l 0.113152,0.06127 0.318884,0.156813 0.0083,0.0027 0.02467,0.01225 h 0.0022 c 0.7509255,0.406717 1.4318985,0.935952 1.9565165,1.717559 0.141958,0.210706 0.271571,0.428769 0.390896,0.651741 0.444379,0.842846 0.713892,1.77635 0.785899,2.788258 0.07201,1.011908 -0.02881,2.011567 -0.362094,2.962238 -0.209841,0.597809 -0.497873,1.136859 -0.8435,1.631793 -0.137842,0.198477 -0.211908,0.191111 -0.366204,0.0098 -0.03293,-0.0392 -0.06173,-0.0784 -0.08845,-0.120065 C 10.340905,17.284424 10.059051,16.610648 10.059051,16.610648 9.7545625,15.927057 9.5611765,15.192016 9.4932835,14.410411 9.3698425,12.984428 9.6496405,11.666247 10.408798,10.524476 10.149571,10.166751 9.8553765,9.862934 9.5364895,9.600774 c -0.399126,0.629683 -0.68509,1.332879 -0.882596,2.077723 -0.037,0.139661 -0.06995,0.279324 -0.09875,0.418978 -0.18516,0.884498 -0.226308,1.786159 -0.109038,2.704961 0.02467,0.198466 0.05555,0.394476 0.09258,0.588034 0.31066,1.705315 1.006031,3.163146 2.1128775,4.363709 0.259229,0.281767 0.380608,0.316049 0.56577,0.129842 0.308597,-0.308715 0.590449,-0.651729 0.851733,-1.016778 0.425867,-0.597875 0.748866,-1.276524 0.997803,-1.994438 0.03087,-0.08577 0.05968,-0.173961 0.0864,-0.259708 0.355915,-1.107467 0.54108,-2.249236 0.442329,-3.440007 -0.0083,-0.0392 -0.01235,-0.08332 -0.01646,-0.12741 z M 9,7 Z m 0,0 z"
       id="path8-3"
       style="fill:#3daee9;fill-opacity:1;stroke-width:0.0224515"
       inkscape:connector-curvature="0"
       sodipodi:nodetypes="ccccccccccccccccccccccccccccccccccccccccccccccccccccccccccccccccscccccccccccccccccccccccccccccc" />
    <path
       id="path4149-8-3"
       d="M 11,1 C 9.89543,1 9,1.89543 9,3 9,4.10457 9.89543,5 11,5 12.104574,5 13,4.10457 13,3 13,1.89543 12.104574,1 11,1 Z m 0,3.333334 z"
       opacity="1"
       fill-opacity="1"
       stroke="none"
       style="fill:#3daee9;fill-opacity:1;stroke-width:0.5"
       sodipodi:nodetypes="sssssccccc" />
  </g>
</svg>
