<?xml version="1.0" encoding="UTF-8" standalone="no"?>
<svg
   xmlns:osb="http://www.openswatchbook.org/uri/2009/osb"
   xmlns:dc="http://purl.org/dc/elements/1.1/"
   xmlns:cc="http://creativecommons.org/ns#"
   xmlns:rdf="http://www.w3.org/1999/02/22-rdf-syntax-ns#"
   xmlns:svg="http://www.w3.org/2000/svg"
   xmlns="http://www.w3.org/2000/svg"
   xmlns:xlink="http://www.w3.org/1999/xlink"
   xmlns:sodipodi="http://sodipodi.sourceforge.net/DTD/sodipodi-0.dtd"
   xmlns:inkscape="http://www.inkscape.org/namespaces/inkscape"
   id="svg2"
   width="128"
   height="128"
   version="1"
   sodipodi:docname="actionbutton.svg"
   inkscape:version="0.92.3 (unknown)">
  <metadata
     id="metadata65">
    <rdf:RDF>
      <cc:Work
         rdf:about="">
        <dc:format>image/svg+xml</dc:format>
        <dc:type
           rdf:resource="http://purl.org/dc/dcmitype/StillImage" />
      </cc:Work>
    </rdf:RDF>
  </metadata>
  <sodipodi:namedview
     pagecolor="#ffffff"
     bordercolor="#666666"
     borderopacity="1"
     objecttolerance="10"
     gridtolerance="10"
     guidetolerance="10"
     inkscape:pageopacity="0"
     inkscape:pageshadow="2"
     inkscape:window-width="1280"
     inkscape:window-height="982"
     id="namedview63"
     showgrid="false"
     inkscape:zoom="2.826815"
     inkscape:cx="13.383108"
     inkscape:cy="54.806736"
     inkscape:window-x="0"
     inkscape:window-y="0"
     inkscape:window-maximized="1"
     inkscape:current-layer="svg2" />
  <defs
     id="defs4">
    <linearGradient
       id="linearGradient4209">
      <stop
         id="stop4211"
         offset="0"
         style="stop-color:#000000;stop-opacity:1" />
      <stop
         id="stop4213"
         offset="1"
         style="stop-color:#000000;stop-opacity:0" />
    </linearGradient>
    <linearGradient
       id="linearGradient6476"
       osb:paint="solid">
      <stop
         id="stop6478"
         offset="0"
         style="stop-color:#ffffff;stop-opacity:1" />
    </linearGradient>
    <radialGradient
       id="radialGradient4201"
       cx="63.894"
       cy="61.058"
       r="9"
       fx="63.894"
       fy="61.058"
       gradientTransform="matrix(-6.1375001e-7,1.2222228,-1.2222222,-6.2559558e-7,142.62634,-21.09247)"
       gradientUnits="userSpaceOnUse"
       xlink:href="#linearGradient4209" />
    <radialGradient
       id="radialGradient4203"
       cx="-31.636"
       cy="8.519"
       r="8.182"
       fx="-31.636"
       fy="8.519"
       gradientTransform="matrix(0,1.44437,-0.99999988,0,-23.570787,54.693527)"
       gradientUnits="userSpaceOnUse"
       xlink:href="#linearGradient4209" />
    <radialGradient
       id="radialGradient4205"
       cx="27"
       cy="43.961"
       r="13"
       fx="27"
       fy="43.961"
       gradientTransform="matrix(6.1944048e-8,1.3846155,-1.1538462,5.1620032e-8,77.724382,12.61538)"
       gradientUnits="userSpaceOnUse"
       xlink:href="#linearGradient4209" />
    <radialGradient
       id="radialGradient4207"
       cx="-32.298"
       cy="8.715"
       r="8.125"
       fx="-32.298"
       fy="8.715"
       gradientTransform="matrix(0,1.3845518,-1,0,-23.375148,53.43377)"
       gradientUnits="userSpaceOnUse"
       xlink:href="#linearGradient4209" />
    <radialGradient
       id="radialGradient4231"
       cx="25.188"
       cy="82.744"
       r="13"
       fx="25.188"
       fy="82.744"
       gradientTransform="matrix(-9.7841381e-8,1.3846154,-1.2307694,-8.6970111e-8,127.83926,52.125005)"
       gradientUnits="userSpaceOnUse"
       xlink:href="#linearGradient4209" />
    <radialGradient
       id="radialGradient4233"
       cx="68"
       cy="90.554"
       r="9"
       fx="68"
       fy="90.554"
       gradientTransform="matrix(-1.0677655e-6,1.2222223,-1.2222218,-1.067765e-6,178.67723,10.888977)"
       gradientUnits="userSpaceOnUse"
       xlink:href="#linearGradient4209" />
    <radialGradient
       id="radialGradient4189"
       cx="25.188"
       cy="82.744"
       r="13"
       fx="25.188"
       fy="82.744"
       gradientTransform="matrix(-9.7841381e-8,1.3846154,-1.2307694,-8.6970111e-8,127.83926,51.125005)"
       gradientUnits="userSpaceOnUse"
       xlink:href="#linearGradient4209" />
    <radialGradient
       id="radialGradient4193"
       cx="27"
       cy="43.961"
       r="13"
       fx="27"
       fy="43.961"
       gradientTransform="matrix(6.1944048e-8,1.3846155,-1.1538462,5.1620032e-8,77.724382,11.61538)"
       gradientUnits="userSpaceOnUse"
       xlink:href="#linearGradient4209" />
    <radialGradient
       id="radialGradient4197"
       cx="63.894"
       cy="61.058"
       r="9"
       fx="63.894"
       fy="61.058"
       gradientTransform="matrix(-6.1375001e-7,1.2222228,-1.2222222,-6.2559558e-7,142.62634,-21.59247)"
       gradientUnits="userSpaceOnUse"
       xlink:href="#linearGradient4209" />
    <radialGradient
       id="radialGradient4202"
       cx="68"
       cy="90.554"
       r="9"
       fx="68"
       fy="90.554"
       gradientTransform="matrix(-1.0677655e-6,1.2222223,-1.2222218,-1.067765e-6,178.67723,10.388977)"
       gradientUnits="userSpaceOnUse"
       xlink:href="#linearGradient4209" />
  </defs>
  <g
     id="normal"
     transform="matrix(1.6,0,0,1.6,78.344238,3.0559999)">
    <rect
       id="rect3803"
       width="20"
       height="20"
       x="-42.09"
       y="-1.91"
       style="opacity:0.00100002;fill:#000000;fill-opacity:1;stroke:none" />
    <circle
       id="path3031"
       cx="-32"
       cy="8"
       r="8"
       transform="matrix(1.015625,0,0,1.015625,0.4098513,-0.0349999)"
       style="color:#eff0f1;fill:#132e43;fill-opacity:1;stroke:none" />
  </g>
  <g
     id="22-22-normal"
     transform="matrix(1.1,0,0,1.1,103.29917,13.101)">
    <rect
       id="rect3042"
       width="20"
       height="20"
       x="-42.09"
       y="-1.91"
       style="opacity:0.00100002;fill:#000000;fill-opacity:1;stroke:none" />
    <path
       id="path3044"
       d="m -24,8 a 8,8 0 0 1 -8,8 8,8 0 0 1 -8,-8 8,8 0 0 1 8,-8 8,8 0 0 1 8,8 z"
       transform="matrix(1.0227273,0,0,1.0227273,0.63711821,-0.0918182)"
       style="fill:#132e43;fill-opacity:1;stroke:none" />
  </g>
  <g
     id="pressed"
     transform="matrix(1.6,0,0,1.6,156.344,16.056)">
    <rect
       id="rect4294"
       width="20"
       height="20"
       x="-42.09"
       y="-1.91"
       style="opacity:0.00100002;fill:#000000;fill-opacity:1;stroke:none" />
    <circle
       id="circle4296"
       cx="-32"
       cy="8"
       r="8"
       transform="matrix(1.015625,0,0,1.015625,0.4098513,-0.0349999)"
       style="color:#eff0f1;fill:#3daee9;fill-opacity:1;stroke:none" />
  </g>
  <g
     id="22-22-pressed"
     transform="matrix(1.1,0,0,1.1,141.299,56.101)">
    <rect
       id="rect4304"
       width="20"
       height="20"
       x="-42.09"
       y="-1.91"
       style="opacity:0.00100002;fill:#000000;fill-opacity:1;stroke:none" />
    <path
       id="path4306"
       d="m -24,8 a 8,8 0 0 1 -8,8 8,8 0 0 1 -8,-8 8,8 0 0 1 8,-8 8,8 0 0 1 8,8 z"
       transform="matrix(1.0227273,0,0,1.0227273,0.63711821,-0.0918182)"
       style="fill:#3daee9;fill-opacity:1;stroke:none" />
  </g>
  <g
     id="hover">
    <rect
       id="rect4240"
       width="32"
       height="32"
       x="11"
       y="34"
       style="opacity:0.001;fill:#000000;fill-opacity:1;stroke:none" />
    <path
       id="path4244"
       d="M 27,37 A 13,13 0 0 0 14,50 13,13 0 0 0 14.021484,50.580078 13,13 0 0 1 27,38 13,13 0 0 1 39.978516,50.419922 13,13 0 0 0 40,50 13,13 0 0 0 27,37 Z"
       style="color:#eff0f1;opacity:0.00100002;fill:#ffffff;fill-opacity:1;stroke:none" />
    <circle
       id="path4189"
       cx="27"
       cy="50"
       r="13"
       style="opacity:1;fill:#132e43;fill-opacity:1;fill-rule:nonzero;stroke:none;stroke-width:2;stroke-linecap:round;stroke-linejoin:round;stroke-miterlimit:4;stroke-dasharray:none;stroke-opacity:1" />
  </g>
  <g
     id="focus">
    <path
       id="path4274"
       d="m 39.978516,87.419922 a 13,13 0 0 1 -0.08398,1.013672 13,13 0 0 1 -0.05859,0.478515 13,13 0 0 1 -0.146485,0.789063 13,13 0 0 1 -0.113281,0.498047 13,13 0 0 1 -0.222656,0.765625 13,13 0 0 1 -0.15625,0.464844 13,13 0 0 1 -0.292969,0.732421 13,13 0 0 1 -0.222656,0.490235 13,13 0 0 1 -0.341797,0.654297 13,13 0 0 1 -0.277344,0.480468 13,13 0 0 1 -0.414062,0.628907 13,13 0 0 1 -0.320313,0.445312 13,13 0 0 1 -0.472656,0.582031 13,13 0 0 1 -0.367188,0.41211 13,13 0 0 1 -0.515625,0.519531 13,13 0 0 1 -0.419922,0.390625 13,13 0 0 1 -0.55664,0.457031 13,13 0 0 1 -0.466797,0.353516 13,13 0 0 1 -0.587891,0.390625 13,13 0 0 1 -0.501953,0.306641 13,13 0 0 1 -0.646484,0.34375 13,13 0 0 1 -0.496094,0.238281 13,13 0 0 1 -0.689453,0.28125 13,13 0 0 1 -0.539063,0.195312 13,13 0 0 1 -0.666015,0.197266 13,13 0 0 1 -0.591797,0.150391 13,13 0 0 1 -0.695313,0.130859 13,13 0 0 1 -0.578125,0.08594 13,13 0 0 1 -0.708984,0.0625 A 13,13 0 0 1 27,100 13,13 0 0 1 25.703125,99.933594 13,13 0 0 1 14.021484,87.580078 13,13 0 0 0 14,88 13,13 0 0 0 14.025391,88.496094 13,13 0 0 0 14,89 13,13 0 0 0 27,102 13,13 0 0 0 40,89 13,13 0 0 0 39.980469,88.554688 13,13 0 0 0 40,88 13,13 0 0 0 39.978516,87.419922 Z"
       style="color:#eff0f1;opacity:1;fill:url(#radialGradient4231);fill-opacity:1;stroke:none" />
    <rect
       id="rect4272"
       width="32"
       height="32"
       x="11"
       y="71"
       style="opacity:0.001;fill:#000000;fill-opacity:1;stroke:none" />
    <circle
       id="circle4191"
       cx="27.093437"
       cy="88.962181"
       r="13"
       style="opacity:1;fill:#132e43;fill-opacity:0.88235295;fill-rule:nonzero;stroke:none;stroke-width:2;stroke-linecap:round;stroke-linejoin:round;stroke-miterlimit:4;stroke-dasharray:none;stroke-opacity:1" />
  </g>
  <g
     id="22-22-hover">
    <rect
       id="rect4250"
       width="22"
       height="22"
       x="57"
       y="45"
       style="opacity:0.001;fill:#000000;fill-opacity:1;stroke:none" />
    <path
       id="path4254"
       d="m 68,47 a 9.0000002,9.0000002 0 0 0 -9,9 9.0000002,9.0000002 0 0 0 0.0098,0.287109 A 9.0000002,9.0000002 0 0 1 68,47.5 9.0000002,9.0000002 0 0 1 76.990234,56.212891 9.0000002,9.0000002 0 0 0 77,56 9.0000002,9.0000002 0 0 0 68,47 Z"
       style="opacity:0.00100002;fill:#ffffff;fill-opacity:1;stroke:none" />
    <circle
       id="path4193"
       cx="68"
       cy="56"
       r="9"
       style="opacity:1;fill:#132e43;fill-opacity:1;fill-rule:nonzero;stroke:none;stroke-width:2;stroke-linecap:round;stroke-linejoin:round;stroke-miterlimit:4;stroke-dasharray:none;stroke-opacity:1" />
  </g>
  <g
     id="22-22-focus">
    <rect
       id="rect4282"
       width="22"
       height="22"
       x="57"
       y="82"
       style="opacity:0.001;fill:#000000;fill-opacity:1;stroke:none" />
    <path
       id="path4288"
       d="m 68,84 a 9.0000002,9.0000002 0 0 0 -9,9 9.0000002,9.0000002 0 0 0 0.0098,0.287109 A 9.0000002,9.0000002 0 0 1 68,84.5 9.0000002,9.0000002 0 0 1 76.990234,93.212891 9.0000002,9.0000002 0 0 0 77,93 9.0000002,9.0000002 0 0 0 68,84 Z"
       style="opacity:0.00100002;fill:#ffffff;fill-opacity:1;stroke:none" />
    <circle
       id="circle4195"
       cx="68"
       cy="93"
       r="9"
       style="opacity:1;fill:#132e43;fill-opacity:0.78431374;fill-rule:nonzero;stroke:none;stroke-width:2;stroke-linecap:round;stroke-linejoin:round;stroke-miterlimit:4;stroke-dasharray:none;stroke-opacity:1" />
  </g>
</svg>
